<svg width="1584" height="396" viewBox="0 0 1584 396" fill="none" xmlns="http://www.w3.org/2000/svg">
<rect width="1584" height="396" fill="#F5F5F5"/>
<g id="Awesome banner" clip-path="url(#clip0_0_1)">
<rect width="1584" height="396" fill="url(#paint0_linear_0_1)"/>
<ellipse id="Ellipse 2" cx="323" cy="64" rx="285" ry="288" fill="url(#paint1_linear_0_1)" fill-opacity="0.1"/>
<g id="copyright">
<path d="M75.95 334.52L72.30 334.52L72.30 311.16L77.20 311.16L83.70 330.04Q83.60 329.02 83.50 327.62Q83.41 326.23 83.33 324.79Q83.25 323.35 83.25 322.23L83.25 311.16L86.90 311.16L86.90 334.52L82 334.52L75.57 315.64Q75.63 316.57 75.73 317.88Q75.82 319.19 75.89 320.57Q75.95 321.94 75.95 323.10L75.95 334.52M98.80 334.84Q96.46 334.84 94.67 333.96Q92.88 333.08 91.89 331.53Q90.90 329.98 90.90 327.93Q90.90 325.78 92.13 324.18Q93.36 322.58 95.34 322.17L95.34 322.10Q93.65 321.75 92.61 320.38Q91.57 319 91.57 317.11Q91.57 315.26 92.48 313.85Q93.39 312.44 95.02 311.64Q96.66 310.84 98.80 310.84Q100.94 310.84 102.59 311.64Q104.24 312.44 105.15 313.85Q106.06 315.26 106.06 317.11Q106.06 319 105.01 320.38Q103.95 321.75 102.26 322.10L102.26 322.17Q104.24 322.58 105.47 324.18Q106.70 325.78 106.70 327.93Q106.70 329.98 105.71 331.53Q104.72 333.08 102.93 333.96Q101.14 334.84 98.80 334.84M98.80 320.73Q100.30 320.73 101.23 319.82Q102.16 318.90 102.16 317.46Q102.16 315.99 101.23 315.08Q100.30 314.17 98.80 314.17Q97.30 314.17 96.37 315.08Q95.44 315.99 95.44 317.46Q95.44 318.90 96.37 319.82Q97.30 320.73 98.80 320.73M98.80 331.45Q100.56 331.45 101.68 330.42Q102.80 329.40 102.80 327.74Q102.80 326.04 101.68 325Q100.56 323.96 98.80 323.96Q97.04 323.96 95.92 325Q94.80 326.04 94.80 327.74Q94.80 329.40 95.92 330.42Q97.04 331.45 98.80 331.45M114.35 334.52L110.70 334.52L110.70 311.16L115.60 311.16L122.10 330.04Q122 329.02 121.90 327.62Q121.81 326.23 121.73 324.79Q121.65 323.35 121.65 322.23L121.65 311.16L125.30 311.16L125.30 334.52L120.40 334.52L113.97 315.64Q114.03 316.57 114.13 317.88Q114.22 319.19 114.29 320.57Q114.35 321.94 114.35 323.10" fill="white" fill-opacity="0.9"/>
<path d="M161.48 325.24L151.24 325.24L151.24 322.68L161.48 322.68" fill="white" fill-opacity="0.9"/>
<path d="M195.02 334.84Q191.82 334.84 189.96 333.05Q188.11 331.26 188.11 328.12L188.11 317.56Q188.11 314.42 189.96 312.63Q191.82 310.84 195.02 310.84Q198.15 310.84 200.01 312.65Q201.87 314.46 201.87 317.56L198.99 317.56Q198.99 315.58 197.95 314.50Q196.91 313.43 195.02 313.43Q193.13 313.43 192.06 314.50Q190.99 315.58 190.99 317.56L190.99 328.12Q190.99 330.10 192.06 331.18Q193.13 332.25 195.02 332.25Q196.91 332.25 197.95 331.18Q198.99 330.10 198.99 328.12L201.87 328.12Q201.87 331.22 200.01 333.03Q198.15 334.84 195.02 334.84" fill="white" fill-opacity="0.9"/>
<path d="M213.96 334.84Q210.83 334.84 209 333.02Q207.18 331.19 207.18 327.80L207.18 317.88Q207.18 314.49 209 312.66Q210.83 310.84 213.96 310.84Q217.10 310.84 218.92 312.66Q220.75 314.49 220.75 317.85L220.75 327.80Q220.75 331.19 218.92 333.02Q217.10 334.84 213.96 334.84M213.96 332.25Q215.85 332.25 216.86 331.18Q217.87 330.10 217.87 328.12L217.87 317.56Q217.87 315.58 216.86 314.50Q215.85 313.43 213.96 313.43Q212.11 313.43 211.08 314.50Q210.06 315.58 210.06 317.56L210.06 328.12Q210.06 330.10 211.08 331.18Q212.11 332.25 213.96 332.25" fill="white" fill-opacity="0.9"/>
<path d="M228.65 334.52L225.87 334.52L225.87 311.16L230.12 311.16L233.10 321.27L236.20 311.16L240.46 311.16L240.46 334.52L237.67 334.52L237.67 323.48Q237.67 321.91 237.72 319.88Q237.77 317.85 237.87 315.77Q237.96 313.69 238.09 312.02L234.31 324.09L231.82 324.09L228.20 312.31Q228.46 314.68 228.55 317.50Q228.65 320.31 228.65 323.48" fill="white" fill-opacity="0.9"/>
<path d="M247.85 334.52L245.07 334.52L245.07 311.16L249.32 311.16L252.30 321.27L255.40 311.16L259.66 311.16L259.66 334.52L256.87 334.52L256.87 323.48Q256.87 321.91 256.92 319.88Q256.97 317.85 257.07 315.77Q257.16 313.69 257.29 312.02L253.51 324.09L251.02 324.09L247.40 312.31Q247.66 314.68 247.75 317.50Q247.85 320.31 247.85 323.48" fill="white" fill-opacity="0.9"/>
<path d="M271.56 334.84Q268.30 334.84 266.57 333.03Q264.84 331.22 264.84 328.12L264.84 311.16L267.72 311.16L267.72 328.12Q267.72 330.04 268.67 331.16Q269.61 332.28 271.56 332.28Q273.48 332.28 274.44 331.16Q275.40 330.04 275.40 328.12L275.40 311.16L278.28 311.16L278.28 328.12Q278.28 331.26 276.57 333.05Q274.86 334.84 271.56 334.84" fill="white" fill-opacity="0.9"/>
<path d="M286.83 334.52L284.04 334.52L284.04 311.16L287.88 311.16L295.02 331.16Q294.95 330.36 294.87 329.19Q294.79 328.02 294.75 326.73Q294.70 325.43 294.70 324.28L294.70 311.16L297.48 311.16L297.48 334.52L293.64 334.52L286.54 314.52Q286.60 315.29 286.67 316.46Q286.73 317.62 286.78 318.92Q286.83 320.22 286.83 321.40" fill="white" fill-opacity="0.9"/>
<path d="M316.20 334.52L303.72 334.52L303.72 331.90L308.49 331.90L308.49 313.78L303.72 313.78L303.72 311.16L316.20 311.16L316.20 313.78L311.43 313.78L311.43 331.90L316.20 331.90" fill="white" fill-opacity="0.9"/>
<path d="M330.60 334.52L327.72 334.52L327.72 313.78L321.32 313.78L321.32 311.16L337 311.16L337 313.78L330.60 313.78" fill="white" fill-opacity="0.9"/>
<path d="M349.80 334.52L346.92 334.52L346.92 325.78L339.88 311.16L342.95 311.16L347.50 320.76Q347.88 321.56 348.11 322.12Q348.33 322.68 348.39 322.94Q348.46 322.68 348.70 322.12Q348.94 321.56 349.32 320.76L353.87 311.16L356.84 311.16L349.80 325.78" fill="white" fill-opacity="0.9"/>
<path d="M382.83 334.52L380.04 334.52L380.04 311.16L383.88 311.16L391.02 331.16Q390.95 330.36 390.87 329.19Q390.79 328.02 390.75 326.73Q390.70 325.43 390.70 324.28L390.70 311.16L393.48 311.16L393.48 334.52L389.64 334.52L382.54 314.52Q382.60 315.29 382.67 316.46Q382.73 317.62 382.78 318.92Q382.83 320.22 382.83 321.40" fill="white" fill-opacity="0.9"/>
<path d="M405.96 334.84Q402.83 334.84 401 333.02Q399.18 331.19 399.18 327.80L399.18 317.88Q399.18 314.49 401 312.66Q402.83 310.84 405.96 310.84Q409.10 310.84 410.92 312.66Q412.75 314.49 412.75 317.85L412.75 327.80Q412.75 331.19 410.92 333.02Q409.10 334.84 405.96 334.84M405.96 332.25Q407.85 332.25 408.86 331.18Q409.87 330.10 409.87 328.12L409.87 317.56Q409.87 315.58 408.86 314.50Q407.85 313.43 405.96 313.43Q404.11 313.43 403.08 314.50Q402.06 315.58 402.06 317.56L402.06 328.12Q402.06 330.10 403.08 331.18Q404.11 332.25 405.96 332.25" fill="white" fill-opacity="0.9"/>
<path d="M424.55 334.52L418.51 334.52L418.51 311.16L424.55 311.16Q426.83 311.16 428.47 312.02Q430.12 312.89 431.03 314.46Q431.95 316.02 431.95 318.17L431.95 327.48Q431.95 329.62 431.03 331.21Q430.12 332.79 428.47 333.66Q426.83 334.52 424.55 334.52M421.39 313.72L421.39 331.96L424.55 331.96Q426.67 331.96 427.87 330.78Q429.07 329.59 429.07 327.48L429.07 318.17Q429.07 316.09 427.87 314.90Q426.67 313.72 424.55 313.72" fill="white" fill-opacity="0.9"/>
<path d="M451.40 334.52L437.96 334.52L437.96 311.16L451.40 311.16L451.40 313.78L440.81 313.78L440.81 321.02L450.28 321.02L450.28 323.58L440.81 323.58L440.81 331.90L451.40 331.90" fill="white" fill-opacity="0.9"/>
<path d="M463.69 334.84Q460.30 334.84 458.28 333.05Q456.27 331.26 456.27 328.12L459.15 328.12Q459.15 330.07 460.39 331.18Q461.64 332.28 463.69 332.28Q465.67 332.28 466.86 331.13Q468.04 329.98 468.04 328.12Q468.04 326.71 467.29 325.67Q466.54 324.63 465.13 324.25L461.58 323.26Q459.37 322.62 458.11 320.97Q456.84 319.32 456.84 317.08Q456.84 315.22 457.67 313.82Q458.51 312.41 460.01 311.62Q461.51 310.84 463.47 310.84Q465.45 310.84 466.97 311.62Q468.49 312.41 469.35 313.80Q470.22 315.19 470.22 317.02L467.34 317.02Q467.34 315.42 466.25 314.41Q465.16 313.40 463.47 313.40Q461.77 313.40 460.71 314.41Q459.66 315.42 459.66 317.02Q459.66 318.30 460.35 319.21Q461.03 320.12 462.28 320.47L465.93 321.50Q468.27 322.14 469.56 323.91Q470.86 325.69 470.86 328.12Q470.86 331.19 468.91 333.02Q466.95 334.84 463.69 334.84" fill="white" fill-opacity="0.9"/>
</g>
<path d="M77.30 197.88Q74.90 197.88 73.50 196.54Q72.11 195.19 72.11 192.84L72.11 184.92Q72.11 182.57 73.50 181.22Q74.90 179.88 77.30 179.88Q79.65 179.88 81.04 181.24Q82.43 182.59 82.43 184.92L80.27 184.92Q80.27 183.43 79.49 182.63Q78.71 181.82 77.30 181.82Q75.88 181.82 75.08 182.62Q74.27 183.41 74.27 184.90L74.27 192.84Q74.27 194.33 75.08 195.14Q75.88 195.96 77.30 195.96Q78.71 195.96 79.49 195.14Q80.27 194.33 80.27 192.84L80.27 190.44L76.72 190.44L76.72 188.47L82.43 188.47L82.43 192.84Q82.43 195.17 81.04 196.52Q79.65 197.88 77.30 197.88" fill="white" fill-opacity="0.7"/>
<path d="M91.60 197.83Q89.22 197.83 87.82 196.44Q86.42 195.05 86.42 192.55L86.42 189.53Q86.42 187.01 87.81 185.63Q89.20 184.25 91.60 184.25Q94 184.25 95.39 185.63Q96.78 187.01 96.78 189.53L96.78 192.55Q96.78 195.05 95.38 196.44Q93.98 197.83 91.60 197.83M91.60 195.91Q93.02 195.91 93.82 195.12Q94.62 194.33 94.62 192.79L94.62 189.29Q94.62 187.75 93.82 186.96Q93.02 186.17 91.60 186.17Q90.21 186.17 89.39 186.96Q88.58 187.75 88.58 189.29L88.58 192.79Q88.58 194.33 89.39 195.12Q90.21 195.91 91.60 195.91" fill="white" fill-opacity="0.7"/>
<path d="M105.54 197.64L101.01 197.64L101.01 180.12L105.54 180.12Q107.25 180.12 108.48 180.77Q109.72 181.42 110.40 182.59Q111.09 183.77 111.09 185.38L111.09 192.36Q111.09 193.97 110.40 195.16Q109.72 196.34 108.48 196.99Q107.25 197.64 105.54 197.64M103.17 182.04L103.17 195.72L105.54 195.72Q107.13 195.72 108.03 194.83Q108.93 193.94 108.93 192.36L108.93 185.38Q108.93 183.82 108.03 182.93Q107.13 182.04 105.54 182.04" fill="white" fill-opacity="0.7"/>
<path d="M119.25 197.88Q117.21 197.88 116.01 196.74Q114.81 195.60 114.81 193.75Q114.81 192.53 115.36 191.62Q115.91 190.70 116.90 190.19Q117.88 189.67 119.15 189.67L123.23 189.67L123.23 188.64Q123.23 186.07 120.42 186.07Q119.18 186.07 118.41 186.53Q117.64 186.98 117.59 187.80L115.43 187.80Q115.55 186.24 116.88 185.22Q118.22 184.20 120.42 184.20Q122.82 184.20 124.11 185.35Q125.39 186.50 125.39 188.57L125.39 197.64L123.26 197.64L123.26 195.24L123.21 195.24Q123.02 196.46 121.98 197.17Q120.95 197.88 119.25 197.88M119.78 196.06Q121.36 196.06 122.30 195.29Q123.23 194.52 123.23 193.20L123.23 191.35L119.39 191.35Q118.34 191.35 117.68 191.99Q117.02 192.62 117.02 193.68Q117.02 194.78 117.75 195.42Q118.48 196.06 119.78 196.06" fill="white" fill-opacity="0.7"/>
<path d="M134.03 197.88Q132.06 197.88 130.88 196.56Q129.69 195.24 129.69 192.98L129.69 189.12Q129.69 186.84 130.86 185.52Q132.04 184.20 134.03 184.20Q135.52 184.20 136.49 184.94Q137.46 185.69 137.66 186.96L137.68 186.96L137.63 183.96L137.63 180.12L139.79 180.12L139.79 197.64L137.63 197.64L137.63 195.12L137.61 195.12Q137.44 196.42 136.48 197.15Q135.52 197.88 134.03 197.88M134.75 196.01Q136.10 196.01 136.86 195.17Q137.63 194.33 137.63 192.84L137.63 189.24Q137.63 187.75 136.86 186.91Q136.10 186.07 134.75 186.07Q133.38 186.07 132.62 186.78Q131.85 187.49 131.85 189.12L131.85 192.96Q131.85 194.57 132.62 195.29Q133.38 196.01 134.75 196.01" fill="white" fill-opacity="0.7"/>
<path d="M148.43 197.88Q146.46 197.88 145.28 196.56Q144.09 195.24 144.09 192.98L144.09 189.12Q144.09 186.84 145.26 185.52Q146.44 184.20 148.43 184.20Q149.92 184.20 150.89 184.94Q151.86 185.69 152.06 186.96L152.08 186.96L152.03 183.96L152.03 180.12L154.19 180.12L154.19 197.64L152.03 197.64L152.03 195.12L152.01 195.12Q151.84 196.42 150.88 197.15Q149.92 197.88 148.43 197.88M149.15 196.01Q150.50 196.01 151.26 195.17Q152.03 194.33 152.03 192.84L152.03 189.24Q152.03 187.75 151.26 186.91Q150.50 186.07 149.15 186.07Q147.78 186.07 147.02 186.78Q146.25 187.49 146.25 189.12L146.25 192.96Q146.25 194.57 147.02 195.29Q147.78 196.01 149.15 196.01" fill="white" fill-opacity="0.7"/>
<path d="M162.93 201.96L160.67 201.96L162.62 196.82L157.70 184.44L160.02 184.44L163.14 192.60Q163.34 193.08 163.50 193.61Q163.67 194.14 163.74 194.52Q163.82 194.14 163.98 193.61Q164.15 193.08 164.32 192.60L167.22 184.44L169.50 184.44" fill="white" fill-opacity="0.7"/>
<path d="M188.61 197.64L186.40 197.64L190.96 180.12L193.86 180.12L198.40 197.64L196.22 197.64L195.06 192.98L189.76 192.98L188.61 197.64M191.54 185.74L190.19 191.16L194.61 191.16L193.26 185.76Q192.88 184.22 192.66 183.19Q192.45 182.16 192.40 181.85Q192.35 182.16 192.14 183.19Q191.92 184.22 191.54 185.74" fill="white" fill-opacity="0.7"/>
<path d="M207.57 197.88Q206.08 197.88 205.12 197.15Q204.16 196.42 203.99 195.12L203.97 195.12L203.97 197.64L201.81 197.64L201.81 180.12L203.97 180.12L203.97 183.96L203.92 186.96L203.94 186.96Q204.14 185.69 205.11 184.94Q206.08 184.20 207.57 184.20Q209.56 184.20 210.74 185.52Q211.91 186.84 211.91 189.12L211.91 192.98Q211.91 195.24 210.74 196.56Q209.56 197.88 207.57 197.88M206.85 196.01Q208.22 196.01 208.98 195.29Q209.75 194.57 209.75 192.96L209.75 189.12Q209.75 187.49 208.98 186.78Q208.22 186.07 206.85 186.07Q205.53 186.07 204.75 186.91Q203.97 187.75 203.97 189.24L203.97 192.84Q203.97 194.33 204.75 195.17Q205.53 196.01 206.85 196.01" fill="white" fill-opacity="0.7"/>
<path d="M221.18 197.88Q218.90 197.88 217.53 196.52Q216.16 195.17 216.16 192.84L216.16 184.44L218.32 184.44L218.32 192.84Q218.32 194.28 219.09 195.13Q219.86 195.98 221.18 195.98Q222.52 195.98 223.30 195.13Q224.08 194.28 224.08 192.84L224.08 184.44L226.24 184.44L226.24 192.84Q226.24 195.17 224.85 196.52Q223.46 197.88 221.18 197.88" fill="white" fill-opacity="0.7"/>
<path d="M236.13 197.83L235.07 197.83Q232.86 197.83 231.65 196.84Q230.44 195.84 230.44 194.02L232.60 194.02Q232.60 194.93 233.25 195.44Q233.90 195.96 235.07 195.96L236.13 195.96Q237.33 195.96 237.99 195.43Q238.65 194.90 238.65 193.94Q238.65 192.24 237.09 192.02L233.44 191.50Q232.10 191.30 231.35 190.38Q230.61 189.46 230.61 187.94Q230.61 186.22 231.80 185.23Q232.98 184.25 235.07 184.25L236.13 184.25Q238.05 184.25 239.26 185.20Q240.47 186.14 240.57 187.68L238.38 187.68Q238.34 186.98 237.72 186.53Q237.11 186.07 236.13 186.07L235.07 186.07Q233.97 186.07 233.34 186.58Q232.72 187.08 232.72 187.94Q232.72 189.34 233.99 189.53L237.40 190.01Q240.76 190.49 240.76 193.94Q240.76 195.79 239.55 196.81Q238.34 197.83 236.13 197.83" fill="white" fill-opacity="0.7"/>
<path d="MNaN 197.88Q247.67 197.88 246.24 196.48Q244.82 195.07 244.82 192.60L244.82 189.48Q244.82 187.01 246.24 185.60Q247.67 184.20 NaN 184.20Q251.56 184.20 252.72 184.82Q253.89 185.45 254.54 186.58Q255.18 187.70 255.18 189.24L255.18 191.59L246.93 191.59L246.93 192.84Q246.93 194.30 247.77 195.16Q248.61 196.01 NaN 196.01Q251.20 196.01 251.98 195.54Q252.76 195.07 252.93 194.28L255.09 194.28Q254.87 195.94 253.48 196.91Q252.09 197.88 NaN 197.88M246.93 189.24L246.93 189.91L253.07 189.91L253.07 189.24Q253.07 187.68 252.27 186.83Q251.46 185.98 NaN 185.98Q248.54 185.98 247.73 186.83Q246.93 187.68 246.93 189.24" fill="white" fill-opacity="0.7"/>
<path d="M275.01 197.64L272.80 197.64L277.36 180.12L280.26 180.12L284.80 197.64L282.62 197.64L281.46 192.98L276.16 192.98L275.01 197.64M277.94 185.74L276.59 191.16L281.01 191.16L279.66 185.76Q279.28 184.22 279.06 183.19Q278.85 182.16 278.80 181.85Q278.75 182.16 278.54 183.19Q278.32 184.22 277.94 185.74" fill="white" fill-opacity="0.7"/>
<path d="M290.37 197.64L288.21 197.64L288.21 180.12L293.85 180.12Q296.30 180.12 297.75 181.52Q299.20 182.93 299.20 185.28Q299.20 187.63 297.75 189.04Q296.30 190.44 293.85 190.44L290.37 190.44L290.37 197.64M290.37 182.06L290.37 188.50L293.85 188.50Q295.26 188.50 296.12 187.62Q296.97 186.74 296.97 185.28Q296.97 183.79 296.12 182.93Q295.26 182.06 293.85 182.06" fill="white" fill-opacity="0.7"/>
<path d="M312.28 197.64L302.92 197.64L302.92 195.67L306.50 195.67L306.50 182.09L302.92 182.09L302.92 180.12L312.28 180.12L312.28 182.09L308.70 182.09L308.70 195.67L312.28 195.67" fill="white" fill-opacity="0.7"/>
<path d="M337.48 197.64L335.32 197.64L335.32 182.09L330.52 182.09L330.52 180.12L342.28 180.12L342.28 182.09L337.48 182.09" fill="white" fill-opacity="0.7"/>
<path d="M350.80 197.88Q348.47 197.88 347.04 196.48Q345.62 195.07 345.62 192.60L345.62 189.48Q345.62 187.01 347.04 185.60Q348.47 184.20 350.80 184.20Q352.36 184.20 353.52 184.82Q354.69 185.45 355.34 186.58Q355.98 187.70 355.98 189.24L355.98 191.59L347.73 191.59L347.73 192.84Q347.73 194.30 348.57 195.16Q349.41 196.01 350.80 196.01Q352 196.01 352.78 195.54Q353.56 195.07 353.73 194.28L355.89 194.28Q355.67 195.94 354.28 196.91Q352.89 197.88 350.80 197.88M347.73 189.24L347.73 189.91L353.87 189.91L353.87 189.24Q353.87 187.68 353.07 186.83Q352.26 185.98 350.80 185.98Q349.34 185.98 348.53 186.83Q347.73 187.68 347.73 189.24" fill="white" fill-opacity="0.7"/>
<path d="M362.85 197.64L360.69 197.64L360.69 184.44L362.85 184.44L362.85 186.96L362.90 186.96Q363.06 185.69 363.98 184.94Q364.89 184.20 366.42 184.20Q368.49 184.20 369.60 185.44Q370.72 186.67 370.72 188.95L370.72 190.08L368.56 190.08L368.56 188.95Q368.56 186.07 365.75 186.07Q364.34 186.07 363.59 186.89Q362.85 187.70 362.85 189.24" fill="white" fill-opacity="0.7"/>
<path d="M375.86 197.64L373.84 197.64L373.84 184.44L375.71 184.44L375.71 186.19L375.76 186.19Q375.88 185.30 376.47 184.75Q377.06 184.20 377.97 184.20Q378.83 184.20 379.43 184.70Q380.03 185.21 380.30 186.07L380.32 186.07Q380.49 185.21 381.08 184.70Q381.66 184.20 382.58 184.20Q383.85 184.20 384.60 185.15Q385.36 186.10 385.36 187.61L385.36 197.64L383.34 197.64L383.34 187.58Q383.34 186.79 382.96 186.32Q382.58 185.86 381.90 185.86Q381.26 185.86 380.87 186.31Q380.49 186.77 380.49 187.56L380.49 197.64L378.71 197.64L378.71 187.58Q378.71 186.79 378.33 186.32Q377.94 185.86 377.30 185.86Q376.62 185.86 376.24 186.31Q375.86 186.77 375.86 187.56" fill="white" fill-opacity="0.7"/>
<path d="M394.53 197.83L393.47 197.83Q391.26 197.83 390.05 196.84Q388.84 195.84 388.84 194.02L391 194.02Q391 194.93 391.65 195.44Q392.30 195.96 393.47 195.96L394.53 195.96Q395.73 195.96 396.39 195.43Q397.05 194.90 397.05 193.94Q397.05 192.24 395.49 192.02L391.84 191.50Q390.50 191.30 389.75 190.38Q389.01 189.46 389.01 187.94Q389.01 186.22 390.20 185.23Q391.38 184.25 393.47 184.25L394.53 184.25Q396.45 184.25 397.66 185.20Q398.87 186.14 398.97 187.68L396.78 187.68Q396.74 186.98 396.12 186.53Q395.51 186.07 394.53 186.07L393.47 186.07Q392.37 186.07 391.74 186.58Q391.12 187.08 391.12 187.94Q391.12 189.34 392.39 189.53L395.80 190.01Q399.16 190.49 399.16 193.94Q399.16 195.79 397.95 196.81Q396.74 197.83 394.53 197.83" fill="white" fill-opacity="0.7"/>
<path d="M422.80 197.83Q420.42 197.83 419.02 196.44Q417.62 195.05 417.62 192.55L417.62 189.53Q417.62 187.01 419.01 185.63Q420.40 184.25 422.80 184.25Q425.20 184.25 426.59 185.63Q427.98 187.01 427.98 189.53L427.98 192.55Q427.98 195.05 426.58 196.44Q425.18 197.83 422.80 197.83M422.80 195.91Q424.22 195.91 425.02 195.12Q425.82 194.33 425.82 192.79L425.82 189.29Q425.82 187.75 425.02 186.96Q424.22 186.17 422.80 186.17Q421.41 186.17 420.59 186.96Q419.78 187.75 419.78 189.29L419.78 192.79Q419.78 194.33 420.59 195.12Q421.41 195.91 422.80 195.91" fill="white" fill-opacity="0.7"/>
<path d="M437.32 197.64L435.16 197.64L435.16 188.21L431.32 188.21L431.32 186.24L435.16 186.24L435.16 183.48Q435.16 181.92 436.14 181.02Q437.13 180.12 438.86 180.12L442.72 180.12L442.72 182.09L438.86 182.09Q437.32 182.09 437.32 183.48L437.32 186.24L442.72 186.24L442.72 188.21L437.32 188.21" fill="white" fill-opacity="0.7"/>
<path d="M466 197.88Q463.55 197.88 462.26 196.52Q460.96 195.17 460.96 192.84L460.96 180.12L463.12 180.12L463.12 192.84Q463.12 194.28 463.83 195.12Q464.54 195.96 466 195.96Q467.44 195.96 468.16 195.12Q468.88 194.28 468.88 192.84L468.88 180.12L471.04 180.12L471.04 192.84Q471.04 195.19 469.76 196.54Q468.47 197.88 466 197.88" fill="white" fill-opacity="0.7"/>
<path d="M480.93 197.83L479.87 197.83Q477.66 197.83 476.45 196.84Q475.24 195.84 475.24 194.02L477.40 194.02Q477.40 194.93 478.05 195.44Q478.70 195.96 479.87 195.96L480.93 195.96Q482.13 195.96 482.79 195.43Q483.45 194.90 483.45 193.94Q483.45 192.24 481.89 192.02L478.24 191.50Q476.90 191.30 476.15 190.38Q475.41 189.46 475.41 187.94Q475.41 186.22 476.60 185.23Q477.78 184.25 479.87 184.25L480.93 184.25Q482.85 184.25 484.06 185.20Q485.27 186.14 485.37 187.68L483.18 187.68Q483.14 186.98 482.52 186.53Q481.91 186.07 480.93 186.07L479.87 186.07Q478.77 186.07 478.14 186.58Q477.52 187.08 477.52 187.94Q477.52 189.34 478.79 189.53L482.20 190.01Q485.56 190.49 485.56 193.94Q485.56 195.79 484.35 196.81Q483.14 197.83 480.93 197.83" fill="white" fill-opacity="0.7"/>
<path d="M494.80 197.88Q492.47 197.88 491.04 196.48Q489.62 195.07 489.62 192.60L489.62 189.48Q489.62 187.01 491.04 185.60Q492.47 184.20 494.80 184.20Q496.36 184.20 497.52 184.82Q498.69 185.45 499.34 186.58Q499.98 187.70 499.98 189.24L499.98 191.59L491.73 191.59L491.73 192.84Q491.73 194.30 492.57 195.16Q493.41 196.01 494.80 196.01Q496 196.01 496.78 195.54Q497.56 195.07 497.73 194.28L499.89 194.28Q499.67 195.94 498.28 196.91Q496.89 197.88 494.80 197.88M491.73 189.24L491.73 189.91L497.87 189.91L497.87 189.24Q497.87 187.68 497.07 186.83Q496.26 185.98 494.80 185.98Q493.34 185.98 492.53 186.83Q491.73 187.68 491.73 189.24" fill="white" fill-opacity="0.7"/>
<path d="M509.20 187.75Q508.22 187.75 507.71 187.27Q507.21 186.79 507.21 185.98Q507.21 185.16 507.71 184.68Q508.22 184.20 509.20 184.20Q510.18 184.20 510.69 184.68Q511.19 185.16 511.19 185.98Q511.19 186.79 510.69 187.27Q510.18 187.75 509.20 187.75M509.20 197.88Q508.22 197.88 507.71 197.40Q507.21 196.92 507.21 196.10Q507.21 195.29 507.71 194.81Q508.22 194.33 509.20 194.33Q510.18 194.33 510.69 194.81Q511.19 195.29 511.19 196.10Q511.19 196.92 510.69 197.40Q510.18 197.88 509.20 197.88" fill="white" fill-opacity="0.7"/>
<path d="M523.70 197.88Q521.30 197.88 519.90 196.54Q518.51 195.19 518.51 192.84L518.51 184.92Q518.51 182.57 519.90 181.22Q521.30 179.88 523.70 179.88Q526.05 179.88 527.44 181.24Q528.83 182.59 528.83 184.92L526.67 184.92Q526.67 183.43 525.89 182.63Q525.11 181.82 523.70 181.82Q522.28 181.82 521.48 182.62Q520.67 183.41 520.67 184.90L520.67 192.84Q520.67 194.33 521.48 195.14Q522.28 195.96 523.70 195.96Q525.11 195.96 525.89 195.14Q526.67 194.33 526.67 192.84L526.67 190.44L523.12 190.44L523.12 188.47L528.83 188.47L528.83 192.84Q528.83 195.17 527.44 196.52Q526.05 197.88 523.70 197.88" fill="white" fill-opacity="0.7"/>
<path d="M538 197.83Q535.62 197.83 534.22 196.44Q532.82 195.05 532.82 192.55L532.82 189.53Q532.82 187.01 534.21 185.63Q535.60 184.25 538 184.25Q540.40 184.25 541.79 185.63Q543.18 187.01 543.18 189.53L543.18 192.55Q543.18 195.05 541.78 196.44Q540.38 197.83 538 197.83M538 195.91Q539.42 195.91 540.22 195.12Q541.02 194.33 541.02 192.79L541.02 189.29Q541.02 187.75 540.22 186.96Q539.42 186.17 538 186.17Q536.61 186.17 535.79 186.96Q534.98 187.75 534.98 189.29L534.98 192.79Q534.98 194.33 535.79 195.12Q536.61 195.91 538 195.91" fill="white" fill-opacity="0.7"/>
<path d="M551.94 197.64L547.41 197.64L547.41 180.12L551.94 180.12Q553.65 180.12 554.88 180.77Q556.12 181.42 556.80 182.59Q557.49 183.77 557.49 185.38L557.49 192.36Q557.49 193.97 556.80 195.16Q556.12 196.34 554.88 196.99Q553.65 197.64 551.94 197.64M549.57 182.04L549.57 195.72L551.94 195.72Q553.53 195.72 554.43 194.83Q555.33 193.94 555.33 192.36L555.33 185.38Q555.33 183.82 554.43 182.93Q553.53 182.04 551.94 182.04" fill="white" fill-opacity="0.7"/>
<path d="M565.65 197.88Q563.61 197.88 562.41 196.74Q561.21 195.60 561.21 193.75Q561.21 192.53 561.76 191.62Q562.31 190.70 563.30 190.19Q564.28 189.67 565.55 189.67L569.63 189.67L569.63 188.64Q569.63 186.07 566.82 186.07Q565.58 186.07 564.81 186.53Q564.04 186.98 563.99 187.80L561.83 187.80Q561.95 186.24 563.28 185.22Q564.62 184.20 566.82 184.20Q569.22 184.20 570.51 185.35Q571.79 186.50 571.79 188.57L571.79 197.64L569.66 197.64L569.66 195.24L569.61 195.24Q569.42 196.46 568.38 197.17Q567.35 197.88 565.65 197.88M566.18 196.06Q567.76 196.06 568.70 195.29Q569.63 194.52 569.63 193.20L569.63 191.35L565.79 191.35Q564.74 191.35 564.08 191.99Q563.42 192.62 563.42 193.68Q563.42 194.78 564.15 195.42Q564.88 196.06 566.18 196.06" fill="white" fill-opacity="0.7"/>
<path d="M580.43 197.88Q578.46 197.88 577.28 196.56Q576.09 195.24 576.09 192.98L576.09 189.12Q576.09 186.84 577.26 185.52Q578.44 184.20 580.43 184.20Q581.92 184.20 582.89 184.94Q583.86 185.69 584.06 186.96L584.08 186.96L584.03 183.96L584.03 180.12L586.19 180.12L586.19 197.64L584.03 197.64L584.03 195.12L584.01 195.12Q583.84 196.42 582.88 197.15Q581.92 197.88 580.43 197.88M581.15 196.01Q582.50 196.01 583.26 195.17Q584.03 194.33 584.03 192.84L584.03 189.24Q584.03 187.75 583.26 186.91Q582.50 186.07 581.15 186.07Q579.78 186.07 579.02 186.78Q578.25 187.49 578.25 189.12L578.25 192.96Q578.25 194.57 579.02 195.29Q579.78 196.01 581.15 196.01" fill="white" fill-opacity="0.7"/>
<path d="M594.83 197.88Q592.86 197.88 591.68 196.56Q590.49 195.24 590.49 192.98L590.49 189.12Q590.49 186.84 591.66 185.52Q592.84 184.20 594.83 184.20Q596.32 184.20 597.29 184.94Q598.26 185.69 598.46 186.96L598.48 186.96L598.43 183.96L598.43 180.12L600.59 180.12L600.59 197.64L598.43 197.64L598.43 195.12L598.41 195.12Q598.24 196.42 597.28 197.15Q596.32 197.88 594.83 197.88M595.55 196.01Q596.90 196.01 597.66 195.17Q598.43 194.33 598.43 192.84L598.43 189.24Q598.43 187.75 597.66 186.91Q596.90 186.07 595.55 186.07Q594.18 186.07 593.42 186.78Q592.65 187.49 592.65 189.12L592.65 192.96Q592.65 194.57 593.42 195.29Q594.18 196.01 595.55 196.01" fill="white" fill-opacity="0.7"/>
<path d="M609.33 201.96L607.07 201.96L609.02 196.82L604.10 184.44L606.42 184.44L609.54 192.60Q609.74 193.08 609.90 193.61Q610.07 194.14 610.14 194.52Q610.22 194.14 610.38 193.61Q610.55 193.08 610.72 192.60L613.62 184.44L615.90 184.44" fill="white" fill-opacity="0.7"/>
<path d="M625.46 187.32L623.37 187.32L623.18 180.12L625.62 180.12" fill="white" fill-opacity="0.7"/>
<path d="M639.33 197.83L638.27 197.83Q636.06 197.83 634.85 196.84Q633.64 195.84 633.64 194.02L635.80 194.02Q635.80 194.93 636.45 195.44Q637.10 195.96 638.27 195.96L639.33 195.96Q640.53 195.96 641.19 195.43Q641.85 194.90 641.85 193.94Q641.85 192.24 640.29 192.02L636.64 191.50Q635.30 191.30 634.55 190.38Q633.81 189.46 633.81 187.94Q633.81 186.22 635 185.23Q636.18 184.25 638.27 184.25L639.33 184.25Q641.25 184.25 642.46 185.20Q643.67 186.14 643.77 187.68L641.58 187.68Q641.54 186.98 640.92 186.53Q640.31 186.07 639.33 186.07L638.27 186.07Q637.17 186.07 636.54 186.58Q635.92 187.08 635.92 187.94Q635.92 189.34 637.19 189.53L640.60 190.01Q643.96 190.49 643.96 193.94Q643.96 195.79 642.75 196.81Q641.54 197.83 639.33 197.83" fill="white" fill-opacity="0.7"/>
<path d="M663.81 197.64L661.60 197.64L666.16 180.12L669.06 180.12L673.60 197.64L671.42 197.64L670.26 192.98L664.96 192.98L663.81 197.64M666.74 185.74L665.39 191.16L669.81 191.16L668.46 185.76Q668.08 184.22 667.86 183.19Q667.65 182.16 667.60 181.85Q667.55 182.16 667.34 183.19Q667.12 184.22 666.74 185.74" fill="white" fill-opacity="0.7"/>
<path d="M682.77 197.88Q681.28 197.88 680.32 197.15Q679.36 196.42 679.19 195.12L679.17 195.12L679.17 197.64L677.01 197.64L677.01 180.12L679.17 180.12L679.17 183.96L679.12 186.96L679.14 186.96Q679.34 185.69 680.31 184.94Q681.28 184.20 682.77 184.20Q684.76 184.20 685.94 185.52Q687.11 186.84 687.11 189.12L687.11 192.98Q687.11 195.24 685.94 196.56Q684.76 197.88 682.77 197.88M682.05 196.01Q683.42 196.01 684.18 195.29Q684.95 194.57 684.95 192.96L684.95 189.12Q684.95 187.49 684.18 186.78Q683.42 186.07 682.05 186.07Q680.73 186.07 679.95 186.91Q679.17 187.75 679.17 189.24L679.17 192.84Q679.17 194.33 679.95 195.17Q680.73 196.01 682.05 196.01" fill="white" fill-opacity="0.7"/>
<path d="M696.38 197.88Q694.10 197.88 692.73 196.52Q691.36 195.17 691.36 192.84L691.36 184.44L693.52 184.44L693.52 192.84Q693.52 194.28 694.29 195.13Q695.06 195.98 696.38 195.98Q697.72 195.98 698.50 195.13Q699.28 194.28 699.28 192.84L699.28 184.44L701.44 184.44L701.44 192.84Q701.44 195.17 700.05 196.52Q698.66 197.88 696.38 197.88" fill="white" fill-opacity="0.7"/>
<path d="M711.33 197.83L710.27 197.83Q708.06 197.83 706.85 196.84Q705.64 195.84 705.64 194.02L707.80 194.02Q707.80 194.93 708.45 195.44Q709.10 195.96 710.27 195.96L711.33 195.96Q712.53 195.96 713.19 195.43Q713.85 194.90 713.85 193.94Q713.85 192.24 712.29 192.02L708.64 191.50Q707.30 191.30 706.55 190.38Q705.81 189.46 705.81 187.94Q705.81 186.22 707 185.23Q708.18 184.25 710.27 184.25L711.33 184.25Q713.25 184.25 714.46 185.20Q715.67 186.14 715.77 187.68L713.58 187.68Q713.54 186.98 712.92 186.53Q712.31 186.07 711.33 186.07L710.27 186.07Q709.17 186.07 708.54 186.58Q707.92 187.08 707.92 187.94Q707.92 189.34 709.19 189.53L712.60 190.01Q715.96 190.49 715.96 193.94Q715.96 195.79 714.75 196.81Q713.54 197.83 711.33 197.83" fill="white" fill-opacity="0.7"/>
<path d="M725.20 197.88Q722.87 197.88 721.44 196.48Q720.02 195.07 720.02 192.60L720.02 189.48Q720.02 187.01 721.44 185.60Q722.87 184.20 725.20 184.20Q726.76 184.20 727.92 184.82Q729.09 185.45 729.74 186.58Q730.38 187.70 730.38 189.24L730.38 191.59L722.13 191.59L722.13 192.84Q722.13 194.30 722.97 195.16Q723.81 196.01 725.20 196.01Q726.40 196.01 727.18 195.54Q727.96 195.07 728.13 194.28L730.29 194.28Q730.07 195.94 728.68 196.91Q727.29 197.88 725.20 197.88M722.13 189.24L722.13 189.91L728.27 189.91L728.27 189.24Q728.27 187.68 727.47 186.83Q726.66 185.98 725.20 185.98Q723.74 185.98 722.93 186.83Q722.13 187.68 722.13 189.24" fill="white" fill-opacity="0.7"/>
<path d="M750.21 197.64L748 197.64L752.56 180.12L755.46 180.12L760 197.64L757.82 197.64L756.66 192.98L751.36 192.98L750.21 197.64M753.14 185.74L751.79 191.16L756.21 191.16L754.86 185.76Q754.48 184.22 754.26 183.19Q754.05 182.16 754 181.85Q753.95 182.16 753.74 183.19Q753.52 184.22 753.14 185.74" fill="white" fill-opacity="0.7"/>
<path d="M765.57 197.64L763.41 197.64L763.41 180.12L769.05 180.12Q771.50 180.12 772.95 181.52Q774.40 182.93 774.40 185.28Q774.40 187.63 772.95 189.04Q771.50 190.44 769.05 190.44L765.57 190.44L765.57 197.64M765.57 182.06L765.57 188.50L769.05 188.50Q770.46 188.50 771.32 187.62Q772.17 186.74 772.17 185.28Q772.17 183.79 771.32 182.93Q770.46 182.06 769.05 182.06" fill="white" fill-opacity="0.7"/>
<path d="M787.48 197.64L778.12 197.64L778.12 195.67L781.70 195.67L781.70 182.09L778.12 182.09L778.12 180.12L787.48 180.12L787.48 182.09L783.90 182.09L783.90 195.67L787.48 195.67" fill="white" fill-opacity="0.7"/>
<path d="M817.72 197.64L806.44 197.64L806.44 195.67L811.12 195.67L811.12 186.41L806.92 186.41L806.92 184.44L813.28 184.44L813.28 195.67L817.72 195.67L817.72 197.64M811.96 182.06Q811.17 182.06 810.71 181.66Q810.26 181.25 810.26 180.55Q810.26 179.83 810.71 179.41Q811.17 178.99 811.96 178.99Q812.75 178.99 813.21 179.41Q813.66 179.83 813.66 180.55Q813.66 181.25 813.21 181.66Q812.75 182.06 811.96 182.06" fill="white" fill-opacity="0.7"/>
<path d="M826.53 197.83L825.47 197.83Q823.26 197.83 822.05 196.84Q820.84 195.84 820.84 194.02L823 194.02Q823 194.93 823.65 195.44Q824.30 195.96 825.47 195.96L826.53 195.96Q827.73 195.96 828.39 195.43Q829.05 194.90 829.05 193.94Q829.05 192.24 827.49 192.02L823.84 191.50Q822.50 191.30 821.75 190.38Q821.01 189.46 821.01 187.94Q821.01 186.22 822.20 185.23Q823.38 184.25 825.47 184.25L826.53 184.25Q828.45 184.25 829.66 185.20Q830.87 186.14 830.97 187.68L828.78 187.68Q828.74 186.98 828.12 186.53Q827.51 186.07 826.53 186.07L825.47 186.07Q824.37 186.07 823.74 186.58Q823.12 187.08 823.12 187.94Q823.12 189.34 824.39 189.53L827.80 190.01Q831.16 190.49 831.16 193.94Q831.16 195.79 829.95 196.81Q828.74 197.83 826.53 197.83" fill="white" fill-opacity="0.7"/>
<path d="M851.97 201.96L849.81 201.96L849.81 184.44L851.97 184.44L851.97 186.96L851.99 186.96Q852.16 185.66 853.12 184.93Q854.08 184.20 855.57 184.20Q857.56 184.20 858.74 185.51Q859.91 186.82 859.91 189.10L859.91 192.96Q859.91 195.24 858.74 196.56Q857.56 197.88 855.57 197.88Q854.08 197.88 853.12 197.14Q852.16 196.39 851.99 195.12L851.92 195.12L851.97 198.12L851.97 201.96M854.85 196.01Q856.22 196.01 856.98 195.29Q857.75 194.57 857.75 192.96L857.75 189.12Q857.75 187.49 856.98 186.78Q856.22 186.07 854.85 186.07Q853.53 186.07 852.75 186.91Q851.97 187.75 851.97 189.24L851.97 192.84Q851.97 194.33 852.75 195.17Q853.53 196.01 854.85 196.01" fill="white" fill-opacity="0.7"/>
<path d="M866.85 197.64L864.69 197.64L864.69 184.44L866.85 184.44L866.85 186.96L866.90 186.96Q867.06 185.69 867.98 184.94Q868.89 184.20 870.42 184.20Q872.49 184.20 873.60 185.44Q874.72 186.67 874.72 188.95L874.72 190.08L872.56 190.08L872.56 188.95Q872.56 186.07 869.75 186.07Q868.34 186.07 867.59 186.89Q866.85 187.70 866.85 189.24" fill="white" fill-opacity="0.7"/>
<path d="M883.60 197.83Q881.22 197.83 879.82 196.44Q878.42 195.05 878.42 192.55L878.42 189.53Q878.42 187.01 879.81 185.63Q881.20 184.25 883.60 184.25Q886 184.25 887.39 185.63Q888.78 187.01 888.78 189.53L888.78 192.55Q888.78 195.05 887.38 196.44Q885.98 197.83 883.60 197.83M883.60 195.91Q885.02 195.91 885.82 195.12Q886.62 194.33 886.62 192.79L886.62 189.29Q886.62 187.75 885.82 186.96Q885.02 186.17 883.60 186.17Q882.21 186.17 881.39 186.96Q880.58 187.75 880.58 189.29L880.58 192.79Q880.58 194.33 881.39 195.12Q882.21 195.91 883.60 195.91" fill="white" fill-opacity="0.7"/>
<path d="M899.42 197.64L896.58 197.64L892.10 184.44L894.42 184.44L897.30 193.32Q897.57 194.11 897.76 194.84Q897.95 195.58 898.05 195.98Q898.17 195.58 898.34 194.84Q898.50 194.11 898.74 193.32L901.62 184.44L903.90 184.44" fill="white" fill-opacity="0.7"/>
<path d="M918.52 197.64L907.24 197.64L907.24 195.67L911.92 195.67L911.92 186.41L907.72 186.41L907.72 184.44L914.08 184.44L914.08 195.67L918.52 195.67L918.52 197.64M912.76 182.06Q911.97 182.06 911.51 181.66Q911.06 181.25 911.06 180.55Q911.06 179.83 911.51 179.41Q911.97 178.99 912.76 178.99Q913.55 178.99 914.01 179.41Q914.46 179.83 914.46 180.55Q914.46 181.25 914.01 181.66Q913.55 182.06 912.76 182.06" fill="white" fill-opacity="0.7"/>
<path d="M926.03 197.88Q924.06 197.88 922.88 196.56Q921.69 195.24 921.69 192.98L921.69 189.12Q921.69 186.84 922.86 185.52Q924.04 184.20 926.03 184.20Q927.52 184.20 928.49 184.94Q929.46 185.69 929.66 186.96L929.68 186.96L929.63 183.96L929.63 180.12L931.79 180.12L931.79 197.64L929.63 197.64L929.63 195.12L929.61 195.12Q929.44 196.42 928.48 197.15Q927.52 197.88 926.03 197.88M926.75 196.01Q928.10 196.01 928.86 195.17Q929.63 194.33 929.63 192.84L929.63 189.24Q929.63 187.75 928.86 186.91Q928.10 186.07 926.75 186.07Q925.38 186.07 924.62 186.78Q923.85 187.49 923.85 189.12L923.85 192.96Q923.85 194.57 924.62 195.29Q925.38 196.01 926.75 196.01" fill="white" fill-opacity="0.7"/>
<path d="M941.20 197.88Q938.87 197.88 937.44 196.48Q936.02 195.07 936.02 192.60L936.02 189.48Q936.02 187.01 937.44 185.60Q938.87 184.20 941.20 184.20Q942.76 184.20 943.92 184.82Q945.09 185.45 945.74 186.58Q946.38 187.70 946.38 189.24L946.38 191.59L938.13 191.59L938.13 192.84Q938.13 194.30 938.97 195.16Q939.81 196.01 941.20 196.01Q942.40 196.01 943.18 195.54Q943.96 195.07 944.13 194.28L946.29 194.28Q946.07 195.94 944.68 196.91Q943.29 197.88 941.20 197.88M938.13 189.24L938.13 189.91L944.27 189.91L944.27 189.24Q944.27 187.68 943.47 186.83Q942.66 185.98 941.20 185.98Q939.74 185.98 938.93 186.83Q938.13 187.68 938.13 189.24" fill="white" fill-opacity="0.7"/>
<path d="M954.83 197.88Q952.86 197.88 951.68 196.56Q950.49 195.24 950.49 192.98L950.49 189.12Q950.49 186.84 951.66 185.52Q952.84 184.20 954.83 184.20Q956.32 184.20 957.29 184.94Q958.26 185.69 958.46 186.96L958.48 186.96L958.43 183.96L958.43 180.12L960.59 180.12L960.59 197.64L958.43 197.64L958.43 195.12L958.41 195.12Q958.24 196.42 957.28 197.15Q956.32 197.88 954.83 197.88M955.55 196.01Q956.90 196.01 957.66 195.17Q958.43 194.33 958.43 192.84L958.43 189.24Q958.43 187.75 957.66 186.91Q956.90 186.07 955.55 186.07Q954.18 186.07 953.42 186.78Q952.65 187.49 952.65 189.12L952.65 192.96Q952.65 194.57 953.42 195.29Q954.18 196.01 955.55 196.01" fill="white" fill-opacity="0.7"/>
<path d="M989.56 197.64L985.72 197.64Q984.09 197.64 983.10 196.69Q982.12 195.74 982.12 194.16L982.12 186.41L978.33 186.41L978.33 184.44L982.12 184.44L982.12 180.72L984.28 180.72L984.28 184.44L989.68 184.44L989.68 186.41L984.28 186.41L984.28 194.16Q984.28 194.83 984.68 195.25Q985.07 195.67 985.72 195.67L989.56 195.67" fill="white" fill-opacity="0.7"/>
<path d="M998.80 197.83Q996.42 197.83 995.02 196.44Q993.62 195.05 993.62 192.55L993.62 189.53Q993.62 187.01 995.01 185.63Q996.40 184.25 998.80 184.25Q1001.20 184.25 1002.59 185.63Q1003.98 187.01 1003.98 189.53L1003.98 192.55Q1003.98 195.05 1002.58 196.44Q1001.18 197.83 998.80 197.83M998.80 195.91Q1000.22 195.91 1001.02 195.12Q1001.82 194.33 1001.82 192.79L1001.82 189.29Q1001.82 187.75 1001.02 186.96Q1000.22 186.17 998.80 186.17Q997.41 186.17 996.59 186.96Q995.78 187.75 995.78 189.29L995.78 192.79Q995.78 194.33 996.59 195.12Q997.41 195.91 998.80 195.91" fill="white" fill-opacity="0.7"/>
<path d="M1028.13 197.83L1027.07 197.83Q1024.86 197.83 1023.65 196.84Q1022.44 195.84 1022.44 194.02L1024.60 194.02Q1024.60 194.93 1025.25 195.44Q1025.90 195.96 1027.07 195.96L1028.13 195.96Q1029.33 195.96 1029.99 195.43Q1030.65 194.90 1030.65 193.94Q1030.65 192.24 1029.09 192.02L1025.44 191.50Q1024.10 191.30 1023.35 190.38Q1022.61 189.46 1022.61 187.94Q1022.61 186.22 1023.80 185.23Q1024.98 184.25 1027.07 184.25L1028.13 184.25Q1030.05 184.25 1031.26 185.20Q1032.47 186.14 1032.57 187.68L1030.38 187.68Q1030.34 186.98 1029.72 186.53Q1029.11 186.07 1028.13 186.07L1027.07 186.07Q1025.97 186.07 1025.34 186.58Q1024.72 187.08 1024.72 187.94Q1024.72 189.34 1025.99 189.53L1029.40 190.01Q1032.76 190.49 1032.76 193.94Q1032.76 195.79 1031.55 196.81Q1030.34 197.83 1028.13 197.83" fill="white" fill-opacity="0.7"/>
<path d="M1048.12 197.64L1036.84 197.64L1036.84 195.67L1041.52 195.67L1041.52 186.41L1037.32 186.41L1037.32 184.44L1043.68 184.44L1043.68 195.67L1048.12 195.67L1048.12 197.64M1042.36 182.06Q1041.57 182.06 1041.11 181.66Q1040.66 181.25 1040.66 180.55Q1040.66 179.83 1041.11 179.41Q1041.57 178.99 1042.36 178.99Q1043.15 178.99 1043.61 179.41Q1044.06 179.83 1044.06 180.55Q1044.06 181.25 1043.61 181.66Q1043.15 182.06 1042.36 182.06" fill="white" fill-opacity="0.7"/>
<path d="M1052.66 197.64L1050.64 197.64L1050.64 184.44L1052.51 184.44L1052.51 186.19L1052.56 186.19Q1052.68 185.30 1053.27 184.75Q1053.86 184.20 1054.77 184.20Q1055.63 184.20 1056.23 184.70Q1056.83 185.21 1057.10 186.07L1057.12 186.07Q1057.29 185.21 1057.88 184.70Q1058.46 184.20 1059.38 184.20Q1060.65 184.20 1061.40 185.15Q1062.16 186.10 1062.16 187.61L1062.16 197.64L1060.14 197.64L1060.14 187.58Q1060.14 186.79 1059.76 186.32Q1059.38 185.86 1058.70 185.86Q1058.06 185.86 1057.67 186.31Q1057.29 186.77 1057.29 187.56L1057.29 197.64L1055.51 197.64L1055.51 187.58Q1055.51 186.79 1055.13 186.32Q1054.74 185.86 1054.10 185.86Q1053.42 185.86 1053.04 186.31Q1052.66 186.77 1052.66 187.56" fill="white" fill-opacity="0.7"/>
<path d="M1067.97 201.96L1065.81 201.96L1065.81 184.44L1067.97 184.44L1067.97 186.96L1067.99 186.96Q1068.16 185.66 1069.12 184.93Q1070.08 184.20 1071.57 184.20Q1073.56 184.20 1074.74 185.51Q1075.91 186.82 1075.91 189.10L1075.91 192.96Q1075.91 195.24 1074.74 196.56Q1073.56 197.88 1071.57 197.88Q1070.08 197.88 1069.12 197.14Q1068.16 196.39 1067.99 195.12L1067.92 195.12L1067.97 198.12L1067.97 201.96M1070.85 196.01Q1072.22 196.01 1072.98 195.29Q1073.75 194.57 1073.75 192.96L1073.75 189.12Q1073.75 187.49 1072.98 186.78Q1072.22 186.07 1070.85 186.07Q1069.53 186.07 1068.75 186.91Q1067.97 187.75 1067.97 189.24L1067.97 192.84Q1067.97 194.33 1068.75 195.17Q1069.53 196.01 1070.85 196.01" fill="white" fill-opacity="0.7"/>
<path d="M1091.20 197.64L1087.12 197.64Q1085.37 197.64 1084.32 196.62Q1083.28 195.60 1083.28 193.92L1083.28 182.09L1078.72 182.09L1078.72 180.12L1085.44 180.12L1085.44 193.92Q1085.44 194.74 1085.90 195.20Q1086.35 195.67 1087.12 195.67L1091.20 195.67" fill="white" fill-opacity="0.7"/>
<path d="M1105.72 197.64L1094.44 197.64L1094.44 195.67L1099.12 195.67L1099.12 186.41L1094.92 186.41L1094.92 184.44L1101.28 184.44L1101.28 195.67L1105.72 195.67L1105.72 197.64M1099.96 182.06Q1099.17 182.06 1098.71 181.66Q1098.26 181.25 1098.26 180.55Q1098.26 179.83 1098.71 179.41Q1099.17 178.99 1099.96 178.99Q1100.75 178.99 1101.21 179.41Q1101.66 179.83 1101.66 180.55Q1101.66 181.25 1101.21 181.66Q1100.75 182.06 1099.96 182.06" fill="white" fill-opacity="0.7"/>
<path d="M1114.12 197.64L1111.96 197.64L1111.96 188.21L1108.12 188.21L1108.12 186.24L1111.96 186.24L1111.96 183.48Q1111.96 181.92 1112.94 181.02Q1113.93 180.12 1115.66 180.12L1119.52 180.12L1119.52 182.09L1115.66 182.09Q1114.12 182.09 1114.12 183.48L1114.12 186.24L1119.52 186.24L1119.52 188.21L1114.12 188.21" fill="white" fill-opacity="0.7"/>
<path d="M1127.73 201.96L1125.47 201.96L1127.42 196.82L1122.50 184.44L1124.82 184.44L1127.94 192.60Q1128.14 193.08 1128.30 193.61Q1128.47 194.14 1128.54 194.52Q1128.62 194.14 1128.78 193.61Q1128.95 193.08 1129.12 192.60L1132.02 184.44L1134.30 184.44" fill="white" fill-opacity="0.7"/>
<path d="M76.05 229.88Q74.01 229.88 72.81 228.74Q71.61 227.60 71.61 225.75Q71.61 224.53 72.16 223.62Q72.71 222.70 73.70 222.19Q74.68 221.67 75.95 221.67L80.03 221.67L80.03 220.64Q80.03 218.07 77.22 218.07Q75.98 218.07 75.21 218.53Q74.44 218.98 74.39 219.80L72.23 219.80Q72.35 218.24 73.68 217.22Q75.02 216.20 77.22 216.20Q79.62 216.20 80.91 217.35Q82.19 218.50 82.19 220.57L82.19 229.64L80.06 229.64L80.06 227.24L80.01 227.24Q79.82 228.46 78.78 229.17Q77.75 229.88 76.05 229.88M76.58 228.06Q78.16 228.06 79.10 227.29Q80.03 226.52 80.03 225.20L80.03 223.35L76.19 223.35Q75.14 223.35 74.48 223.99Q73.82 224.62 73.82 225.68Q73.82 226.78 74.55 227.42Q75.28 228.06 76.58 228.06" fill="white" fill-opacity="0.7"/>
<path d="M88.77 229.64L86.61 229.64L86.61 216.44L88.77 216.44L88.77 218.96L88.79 218.96Q88.96 217.64 89.87 216.92Q90.78 216.20 92.30 216.20Q94.29 216.20 95.46 217.42Q96.64 218.65 96.64 220.76L96.64 229.64L94.48 229.64L94.48 221.14Q94.48 219.63 93.72 218.83Q92.97 218.02 91.67 218.02Q90.33 218.02 89.55 218.86Q88.77 219.70 88.77 221.24" fill="white" fill-opacity="0.7"/>
<path d="M105.23 229.88Q103.26 229.88 102.08 228.56Q100.89 227.24 100.89 224.98L100.89 221.12Q100.89 218.84 102.06 217.52Q103.24 216.20 105.23 216.20Q106.72 216.20 107.69 216.94Q108.66 217.69 108.86 218.96L108.88 218.96L108.83 215.96L108.83 212.12L110.99 212.12L110.99 229.64L108.83 229.64L108.83 227.12L108.81 227.12Q108.64 228.42 107.68 229.15Q106.72 229.88 105.23 229.88M105.95 228.01Q107.30 228.01 108.06 227.17Q108.83 226.33 108.83 224.84L108.83 221.24Q108.83 219.75 108.06 218.91Q107.30 218.07 105.95 218.07Q104.58 218.07 103.82 218.78Q103.05 219.49 103.05 221.12L103.05 224.96Q103.05 226.57 103.82 227.29Q104.58 228.01 105.95 228.01" fill="white" fill-opacity="0.7"/>
<path d="M135.33 229.83L134.27 229.83Q132.06 229.83 130.85 228.84Q129.64 227.84 129.64 226.02L131.80 226.02Q131.80 226.93 132.45 227.44Q133.10 227.96 134.27 227.96L135.33 227.96Q136.53 227.96 137.19 227.43Q137.85 226.90 137.85 225.94Q137.85 224.24 136.29 224.02L132.64 223.50Q131.30 223.30 130.55 222.38Q129.81 221.46 129.81 219.94Q129.81 218.22 131 217.23Q132.18 216.25 134.27 216.25L135.33 216.25Q137.25 216.25 138.46 217.20Q139.67 218.14 139.77 219.68L137.58 219.68Q137.54 218.98 136.92 218.53Q136.31 218.07 135.33 218.07L134.27 218.07Q133.17 218.07 132.54 218.58Q131.92 219.08 131.92 219.94Q131.92 221.34 133.19 221.53L136.60 222.01Q139.96 222.49 139.96 225.94Q139.96 227.79 138.75 228.81Q137.54 229.83 135.33 229.83" fill="white" fill-opacity="0.7"/>
<path d="M154.36 229.64L150.52 229.64Q148.89 229.64 147.90 228.69Q146.92 227.74 146.92 226.16L146.92 218.41L143.13 218.41L143.13 216.44L146.92 216.44L146.92 212.72L149.08 212.72L149.08 216.44L154.48 216.44L154.48 218.41L149.08 218.41L149.08 226.16Q149.08 226.83 149.48 227.25Q149.87 227.67 150.52 227.67L154.36 227.67" fill="white" fill-opacity="0.7"/>
<path d="M162.45 229.88Q160.41 229.88 159.21 228.74Q158.01 227.60 158.01 225.75Q158.01 224.53 158.56 223.62Q159.11 222.70 160.10 222.19Q161.08 221.67 162.35 221.67L166.43 221.67L166.43 220.64Q166.43 218.07 163.62 218.07Q162.38 218.07 161.61 218.53Q160.84 218.98 160.79 219.80L158.63 219.80Q158.75 218.24 160.08 217.22Q161.42 216.20 163.62 216.20Q166.02 216.20 167.31 217.35Q168.59 218.50 168.59 220.57L168.59 229.64L166.46 229.64L166.46 227.24L166.41 227.24Q166.22 228.46 165.18 229.17Q164.15 229.88 162.45 229.88M162.98 228.06Q164.56 228.06 165.50 227.29Q166.43 226.52 166.43 225.20L166.43 223.35L162.59 223.35Q161.54 223.35 160.88 223.99Q160.22 224.62 160.22 225.68Q160.22 226.78 160.95 227.42Q161.68 228.06 162.98 228.06" fill="white" fill-opacity="0.7"/>
<path d="M175.17 229.64L173.01 229.64L173.01 216.44L175.17 216.44L175.17 218.96L175.19 218.96Q175.36 217.64 176.27 216.92Q177.18 216.20 178.70 216.20Q180.69 216.20 181.86 217.42Q183.04 218.65 183.04 220.76L183.04 229.64L180.88 229.64L180.88 221.14Q180.88 219.63 180.12 218.83Q179.37 218.02 178.07 218.02Q176.73 218.02 175.95 218.86Q175.17 219.70 175.17 221.24" fill="white" fill-opacity="0.7"/>
<path d="M191.63 229.88Q189.66 229.88 188.48 228.56Q187.29 227.24 187.29 224.98L187.29 221.12Q187.29 218.84 188.46 217.52Q189.64 216.20 191.63 216.20Q193.12 216.20 194.09 216.94Q195.06 217.69 195.26 218.96L195.28 218.96L195.23 215.96L195.23 212.12L197.39 212.12L197.39 229.64L195.23 229.64L195.23 227.12L195.21 227.12Q195.04 228.42 194.08 229.15Q193.12 229.88 191.63 229.88M192.35 228.01Q193.70 228.01 194.46 227.17Q195.23 226.33 195.23 224.84L195.23 221.24Q195.23 219.75 194.46 218.91Q193.70 218.07 192.35 218.07Q190.98 218.07 190.22 218.78Q189.45 219.49 189.45 221.12L189.45 224.96Q189.45 226.57 190.22 227.29Q190.98 228.01 192.35 228.01" fill="white" fill-opacity="0.7"/>
<path d="M205.65 229.88Q203.61 229.88 202.41 228.74Q201.21 227.60 201.21 225.75Q201.21 224.53 201.76 223.62Q202.31 222.70 203.30 222.19Q204.28 221.67 205.55 221.67L209.63 221.67L209.63 220.64Q209.63 218.07 206.82 218.07Q205.58 218.07 204.81 218.53Q204.04 218.98 203.99 219.80L201.83 219.80Q201.95 218.24 203.28 217.22Q204.62 216.20 206.82 216.20Q209.22 216.20 210.51 217.35Q211.79 218.50 211.79 220.57L211.79 229.64L209.66 229.64L209.66 227.24L209.61 227.24Q209.42 228.46 208.38 229.17Q207.35 229.88 205.65 229.88M206.18 228.06Q207.76 228.06 208.70 227.29Q209.63 226.52 209.63 225.20L209.63 223.35L205.79 223.35Q204.74 223.35 204.08 223.99Q203.42 224.62 203.42 225.68Q203.42 226.78 204.15 227.42Q204.88 228.06 206.18 228.06" fill="white" fill-opacity="0.7"/>
<path d="M218.85 229.64L216.69 229.64L216.69 216.44L218.85 216.44L218.85 218.96L218.90 218.96Q219.06 217.69 219.98 216.94Q220.89 216.20 222.42 216.20Q224.49 216.20 225.60 217.44Q226.72 218.67 226.72 220.95L226.72 222.08L224.56 222.08L224.56 220.95Q224.56 218.07 221.75 218.07Q220.34 218.07 219.59 218.89Q218.85 219.70 218.85 221.24" fill="white" fill-opacity="0.7"/>
<path d="M234.83 229.88Q232.86 229.88 231.68 228.56Q230.49 227.24 230.49 224.98L230.49 221.12Q230.49 218.84 231.66 217.52Q232.84 216.20 234.83 216.20Q236.32 216.20 237.29 216.94Q238.26 217.69 238.46 218.96L238.48 218.96L238.43 215.96L238.43 212.12L240.59 212.12L240.59 229.64L238.43 229.64L238.43 227.12L238.41 227.12Q238.24 228.42 237.28 229.15Q236.32 229.88 234.83 229.88M235.55 228.01Q236.90 228.01 237.66 227.17Q238.43 226.33 238.43 224.84L238.43 221.24Q238.43 219.75 237.66 218.91Q236.90 218.07 235.55 218.07Q234.18 218.07 233.42 218.78Q232.65 219.49 232.65 221.12L232.65 224.96Q232.65 226.57 233.42 227.29Q234.18 228.01 235.55 228.01" fill="white" fill-opacity="0.7"/>
<path d="M256.12 229.64L244.84 229.64L244.84 227.67L249.52 227.67L249.52 218.41L245.32 218.41L245.32 216.44L251.68 216.44L251.68 227.67L256.12 227.67L256.12 229.64M250.36 214.06Q249.57 214.06 249.11 213.66Q248.66 213.25 248.66 212.55Q248.66 211.83 249.11 211.41Q249.57 210.99 250.36 210.99Q251.15 210.99 251.61 211.41Q252.06 211.83 252.06 212.55Q252.06 213.25 251.61 213.66Q251.15 214.06 250.36 214.06" fill="white" fill-opacity="0.7"/>
<path d="M269.44 229.64L259.36 229.64L259.36 227.48L266.75 218.41L259.55 218.41L259.55 216.44L269.18 216.44L269.18 218.60L261.64 227.67L269.44 227.67" fill="white" fill-opacity="0.7"/>
<path d="M278.80 229.88Q276.47 229.88 275.04 228.48Q273.62 227.07 273.62 224.60L273.62 221.48Q273.62 219.01 275.04 217.60Q276.47 216.20 278.80 216.20Q280.36 216.20 281.52 216.82Q282.69 217.45 283.34 218.58Q283.98 219.70 283.98 221.24L283.98 223.59L275.73 223.59L275.73 224.84Q275.73 226.30 276.57 227.16Q277.41 228.01 278.80 228.01Q280 228.01 280.78 227.54Q281.56 227.07 281.73 226.28L283.89 226.28Q283.67 227.94 282.28 228.91Q280.89 229.88 278.80 229.88M275.73 221.24L275.73 221.91L281.87 221.91L281.87 221.24Q281.87 219.68 281.07 218.83Q280.26 217.98 278.80 217.98Q277.34 217.98 276.53 218.83Q275.73 219.68 275.73 221.24" fill="white" fill-opacity="0.7"/>
<path d="M312.76 229.64L308.92 229.64Q307.29 229.64 306.30 228.69Q305.32 227.74 305.32 226.16L305.32 218.41L301.53 218.41L301.53 216.44L305.32 216.44L305.32 212.72L307.48 212.72L307.48 216.44L312.88 216.44L312.88 218.41L307.48 218.41L307.48 226.16Q307.48 226.83 307.88 227.25Q308.27 227.67 308.92 227.67L312.76 227.67" fill="white" fill-opacity="0.7"/>
<path d="M319.17 229.64L317.01 229.64L317.01 212.12L319.17 212.12L319.17 218.96L319.19 218.96Q319.36 217.64 320.27 216.92Q321.18 216.20 322.70 216.20Q324.69 216.20 325.86 217.42Q327.04 218.65 327.04 220.76L327.04 229.64L324.88 229.64L324.88 221.12Q324.88 219.63 324.12 218.83Q323.37 218.02 322.07 218.02Q320.73 218.02 319.95 218.86Q319.17 219.70 319.17 221.24" fill="white" fill-opacity="0.7"/>
<path d="M336.40 229.88Q334.07 229.88 332.64 228.48Q331.22 227.07 331.22 224.60L331.22 221.48Q331.22 219.01 332.64 217.60Q334.07 216.20 336.40 216.20Q337.96 216.20 339.12 216.82Q340.29 217.45 340.94 218.58Q341.58 219.70 341.58 221.24L341.58 223.59L333.33 223.59L333.33 224.84Q333.33 226.30 334.17 227.16Q335.01 228.01 336.40 228.01Q337.60 228.01 338.38 227.54Q339.16 227.07 339.33 226.28L341.49 226.28Q341.27 227.94 339.88 228.91Q338.49 229.88 336.40 229.88M333.33 221.24L333.33 221.91L339.47 221.91L339.47 221.24Q339.47 219.68 338.67 218.83Q337.86 217.98 336.40 217.98Q334.94 217.98 334.13 218.83Q333.33 219.68 333.33 221.24" fill="white" fill-opacity="0.7"/>
<path d="M364.05 229.88Q362.01 229.88 360.81 228.74Q359.61 227.60 359.61 225.75Q359.61 224.53 360.16 223.62Q360.71 222.70 361.70 222.19Q362.68 221.67 363.95 221.67L368.03 221.67L368.03 220.64Q368.03 218.07 365.22 218.07Q363.98 218.07 363.21 218.53Q362.44 218.98 362.39 219.80L360.23 219.80Q360.35 218.24 361.68 217.22Q363.02 216.20 365.22 216.20Q367.62 216.20 368.91 217.35Q370.19 218.50 370.19 220.57L370.19 229.64L368.06 229.64L368.06 227.24L368.01 227.24Q367.82 228.46 366.78 229.17Q365.75 229.88 364.05 229.88M364.58 228.06Q366.16 228.06 367.10 227.29Q368.03 226.52 368.03 225.20L368.03 223.35L364.19 223.35Q363.14 223.35 362.48 223.99Q361.82 224.62 361.82 225.68Q361.82 226.78 362.55 227.42Q363.28 228.06 364.58 228.06" fill="white" fill-opacity="0.7"/>
<path d="M380.37 229.88Q378.88 229.88 377.92 229.15Q376.96 228.42 376.79 227.12L376.77 227.12L376.77 229.64L374.61 229.64L374.61 212.12L376.77 212.12L376.77 215.96L376.72 218.96L376.74 218.96Q376.94 217.69 377.91 216.94Q378.88 216.20 380.37 216.20Q382.36 216.20 383.54 217.52Q384.71 218.84 384.71 221.12L384.71 224.98Q384.71 227.24 383.54 228.56Q382.36 229.88 380.37 229.88M379.65 228.01Q381.02 228.01 381.78 227.29Q382.55 226.57 382.55 224.96L382.55 221.12Q382.55 219.49 381.78 218.78Q381.02 218.07 379.65 218.07Q378.33 218.07 377.55 218.91Q376.77 219.75 376.77 221.24L376.77 224.84Q376.77 226.33 377.55 227.17Q378.33 228.01 379.65 228.01" fill="white" fill-opacity="0.7"/>
<path d="M393.98 229.88Q391.70 229.88 390.33 228.52Q388.96 227.17 388.96 224.84L388.96 216.44L391.12 216.44L391.12 224.84Q391.12 226.28 391.89 227.13Q392.66 227.98 393.98 227.98Q395.32 227.98 396.10 227.13Q396.88 226.28 396.88 224.84L396.88 216.44L399.04 216.44L399.04 224.84Q399.04 227.17 397.65 228.52Q396.26 229.88 393.98 229.88" fill="white" fill-opacity="0.7"/>
<path d="M408.93 229.83L407.87 229.83Q405.66 229.83 404.45 228.84Q403.24 227.84 403.24 226.02L405.40 226.02Q405.40 226.93 406.05 227.44Q406.70 227.96 407.87 227.96L408.93 227.96Q410.13 227.96 410.79 227.43Q411.45 226.90 411.45 225.94Q411.45 224.24 409.89 224.02L406.24 223.50Q404.90 223.30 404.15 222.38Q403.41 221.46 403.41 219.94Q403.41 218.22 404.60 217.23Q405.78 216.25 407.87 216.25L408.93 216.25Q410.85 216.25 412.06 217.20Q413.27 218.14 413.37 219.68L411.18 219.68Q411.14 218.98 410.52 218.53Q409.91 218.07 408.93 218.07L407.87 218.07Q406.77 218.07 406.14 218.58Q405.52 219.08 405.52 219.94Q405.52 221.34 406.79 221.53L410.20 222.01Q413.56 222.49 413.56 225.94Q413.56 227.79 412.35 228.81Q411.14 229.83 408.93 229.83" fill="white" fill-opacity="0.7"/>
<path d="M422.80 229.88Q420.47 229.88 419.04 228.48Q417.62 227.07 417.62 224.60L417.62 221.48Q417.62 219.01 419.04 217.60Q420.47 216.20 422.80 216.20Q424.36 216.20 425.52 216.82Q426.69 217.45 427.34 218.58Q427.98 219.70 427.98 221.24L427.98 223.59L419.73 223.59L419.73 224.84Q419.73 226.30 420.57 227.16Q421.41 228.01 422.80 228.01Q424 228.01 424.78 227.54Q425.56 227.07 425.73 226.28L427.89 226.28Q427.67 227.94 426.28 228.91Q424.89 229.88 422.80 229.88M419.73 221.24L419.73 221.91L425.87 221.91L425.87 221.24Q425.87 219.68 425.07 218.83Q424.26 217.98 422.80 217.98Q421.34 217.98 420.53 218.83Q419.73 219.68 419.73 221.24" fill="white" fill-opacity="0.7"/>
<path d="M449.25 229.64L447.09 229.64L447.09 216.44L449.25 216.44L449.25 218.96L449.30 218.96Q449.46 217.69 450.38 216.94Q451.29 216.20 452.82 216.20Q454.89 216.20 456 217.44Q457.12 218.67 457.12 220.95L457.12 222.08L454.96 222.08L454.96 220.95Q454.96 218.07 452.15 218.07Q450.74 218.07 449.99 218.89Q449.25 219.70 449.25 221.24" fill="white" fill-opacity="0.7"/>
<path d="M466 229.88Q463.67 229.88 462.24 228.48Q460.82 227.07 460.82 224.60L460.82 221.48Q460.82 219.01 462.24 217.60Q463.67 216.20 466 216.20Q467.56 216.20 468.72 216.82Q469.89 217.45 470.54 218.58Q471.18 219.70 471.18 221.24L471.18 223.59L462.93 223.59L462.93 224.84Q462.93 226.30 463.77 227.16Q464.61 228.01 466 228.01Q467.20 228.01 467.98 227.54Q468.76 227.07 468.93 226.28L471.09 226.28Q470.87 227.94 469.48 228.91Q468.09 229.88 466 229.88M462.93 221.24L462.93 221.91L469.07 221.91L469.07 221.24Q469.07 219.68 468.27 218.83Q467.46 217.98 466 217.98Q464.54 217.98 463.73 218.83Q462.93 219.68 462.93 221.24" fill="white" fill-opacity="0.7"/>
<path d="M477.57 233.96L475.41 233.96L475.41 216.44L477.57 216.44L477.57 218.96L477.59 218.96Q477.76 217.66 478.72 216.93Q479.68 216.20 481.17 216.20Q483.16 216.20 484.34 217.51Q485.51 218.82 485.51 221.10L485.51 224.96Q485.51 227.24 484.34 228.56Q483.16 229.88 481.17 229.88Q479.68 229.88 478.72 229.14Q477.76 228.39 477.59 227.12L477.52 227.12L477.57 230.12L477.57 233.96M480.45 228.01Q481.82 228.01 482.58 227.29Q483.35 226.57 483.35 224.96L483.35 221.12Q483.35 219.49 482.58 218.78Q481.82 218.07 480.45 218.07Q479.13 218.07 478.35 218.91Q477.57 219.75 477.57 221.24L477.57 224.84Q477.57 226.33 478.35 227.17Q479.13 228.01 480.45 228.01" fill="white" fill-opacity="0.7"/>
<path d="M494.80 229.83Q492.42 229.83 491.02 228.44Q489.62 227.05 489.62 224.55L489.62 221.53Q489.62 219.01 491.01 217.63Q492.40 216.25 494.80 216.25Q497.20 216.25 498.59 217.63Q499.98 219.01 499.98 221.53L499.98 224.55Q499.98 227.05 498.58 228.44Q497.18 229.83 494.80 229.83M494.80 227.91Q496.22 227.91 497.02 227.12Q497.82 226.33 497.82 224.79L497.82 221.29Q497.82 219.75 497.02 218.96Q496.22 218.17 494.80 218.17Q493.41 218.17 492.59 218.96Q491.78 219.75 491.78 221.29L491.78 224.79Q491.78 226.33 492.59 227.12Q493.41 227.91 494.80 227.91" fill="white" fill-opacity="0.7"/>
<path d="M506.85 229.64L504.69 229.64L504.69 216.44L506.85 216.44L506.85 218.96L506.90 218.96Q507.06 217.69 507.98 216.94Q508.89 216.20 510.42 216.20Q512.49 216.20 513.60 217.44Q514.72 218.67 514.72 220.95L514.72 222.08L512.56 222.08L512.56 220.95Q512.56 218.07 509.75 218.07Q508.34 218.07 507.59 218.89Q506.85 219.70 506.85 221.24" fill="white" fill-opacity="0.7"/>
<path d="M528.76 229.64L524.92 229.64Q523.29 229.64 522.30 228.69Q521.32 227.74 521.32 226.16L521.32 218.41L517.53 218.41L517.53 216.44L521.32 216.44L521.32 212.72L523.48 212.72L523.48 216.44L528.88 216.44L528.88 218.41L523.48 218.41L523.48 226.16Q523.48 226.83 523.88 227.25Q524.27 227.67 524.92 227.67L528.76 227.67" fill="white" fill-opacity="0.7"/>
<path d="M544.12 229.64L532.84 229.64L532.84 227.67L537.52 227.67L537.52 218.41L533.32 218.41L533.32 216.44L539.68 216.44L539.68 227.67L544.12 227.67L544.12 229.64M538.36 214.06Q537.57 214.06 537.11 213.66Q536.66 213.25 536.66 212.55Q536.66 211.83 537.11 211.41Q537.57 210.99 538.36 210.99Q539.15 210.99 539.61 211.41Q540.06 211.83 540.06 212.55Q540.06 213.25 539.61 213.66Q539.15 214.06 538.36 214.06" fill="white" fill-opacity="0.7"/>
<path d="M549.57 229.64L547.41 229.64L547.41 216.44L549.57 216.44L549.57 218.96L549.59 218.96Q549.76 217.64 550.67 216.92Q551.58 216.20 553.10 216.20Q555.09 216.20 556.26 217.42Q557.44 218.65 557.44 220.76L557.44 229.64L555.28 229.64L555.28 221.14Q555.28 219.63 554.52 218.83Q553.77 218.02 552.47 218.02Q551.13 218.02 550.35 218.86Q549.57 219.70 549.57 221.24" fill="white" fill-opacity="0.7"/>
<path d="M567.16 233.96L563.46 233.96L563.46 231.99L567.18 231.99Q568.31 231.99 568.96 231.36Q569.61 230.72 569.61 229.64L569.61 228.44L569.66 226.28L569.58 226.28Q569.39 227.46 568.46 228.09Q567.52 228.73 566.10 228.73Q564.06 228.73 562.89 227.43Q561.71 226.14 561.71 223.88L561.71 221.10Q561.71 218.84 562.89 217.52Q564.06 216.20 566.10 216.20Q567.52 216.20 568.46 216.87Q569.39 217.54 569.58 218.72L569.63 218.72L569.63 216.44L571.77 216.44L571.77 229.64Q571.77 231.63 570.53 232.80Q569.30 233.96 567.16 233.96M566.75 226.93Q568.10 226.93 568.86 226.09Q569.63 225.25 569.63 223.76L569.63 221.24Q569.63 219.75 568.86 218.91Q568.10 218.07 566.75 218.07Q565.38 218.07 564.63 218.86Q563.87 219.66 563.87 221L563.87 224Q563.87 225.34 564.63 226.14Q565.38 226.93 566.75 226.93" fill="white" fill-opacity="0.7"/>
<path d="M595.60 229.88Q593.27 229.88 591.84 228.48Q590.42 227.07 590.42 224.60L590.42 221.48Q590.42 219.01 591.84 217.60Q593.27 216.20 595.60 216.20Q597.16 216.20 598.32 216.82Q599.49 217.45 600.14 218.58Q600.78 219.70 600.78 221.24L600.78 223.59L592.53 223.59L592.53 224.84Q592.53 226.30 593.37 227.16Q594.21 228.01 595.60 228.01Q596.80 228.01 597.58 227.54Q598.36 227.07 598.53 226.28L600.69 226.28Q600.47 227.94 599.08 228.91Q597.69 229.88 595.60 229.88M592.53 221.24L592.53 221.91L598.67 221.91L598.67 221.24Q598.67 219.68 597.87 218.83Q597.06 217.98 595.60 217.98Q594.14 217.98 593.33 218.83Q592.53 219.68 592.53 221.24" fill="white" fill-opacity="0.7"/>
<path d="M606.54 229.64L604 229.64L608.68 222.85L604.29 216.44L606.83 216.44L609.45 220.52Q609.62 220.78 609.77 221.10Q609.93 221.41 610.02 221.60Q610.10 221.41 610.25 221.10Q610.41 220.78 610.58 220.52L613.19 216.44L615.74 216.44L611.34 222.87L616 229.64L613.46 229.64L610.62 225.32Q610.46 225.06 610.30 224.71Q610.14 224.36 610.02 224.14Q609.93 224.36 609.75 224.71Q609.57 225.06 609.38 225.32" fill="white" fill-opacity="0.7"/>
<path d="M621.57 233.96L619.41 233.96L619.41 216.44L621.57 216.44L621.57 218.96L621.59 218.96Q621.76 217.66 622.72 216.93Q623.68 216.20 625.17 216.20Q627.16 216.20 628.34 217.51Q629.51 218.82 629.51 221.10L629.51 224.96Q629.51 227.24 628.34 228.56Q627.16 229.88 625.17 229.88Q623.68 229.88 622.72 229.14Q621.76 228.39 621.59 227.12L621.52 227.12L621.57 230.12L621.57 233.96M624.45 228.01Q625.82 228.01 626.58 227.29Q627.35 226.57 627.35 224.96L627.35 221.12Q627.35 219.49 626.58 218.78Q625.82 218.07 624.45 218.07Q623.13 218.07 622.35 218.91Q621.57 219.75 621.57 221.24L621.57 224.84Q621.57 226.33 622.35 227.17Q623.13 228.01 624.45 228.01" fill="white" fill-opacity="0.7"/>
<path d="M638.80 229.88Q636.47 229.88 635.04 228.48Q633.62 227.07 633.62 224.60L633.62 221.48Q633.62 219.01 635.04 217.60Q636.47 216.20 638.80 216.20Q640.36 216.20 641.52 216.82Q642.69 217.45 643.34 218.58Q643.98 219.70 643.98 221.24L643.98 223.59L635.73 223.59L635.73 224.84Q635.73 226.30 636.57 227.16Q637.41 228.01 638.80 228.01Q640 228.01 640.78 227.54Q641.56 227.07 641.73 226.28L643.89 226.28Q643.67 227.94 642.28 228.91Q640.89 229.88 638.80 229.88M635.73 221.24L635.73 221.91L641.87 221.91L641.87 221.24Q641.87 219.68 641.07 218.83Q640.26 217.98 638.80 217.98Q637.34 217.98 636.53 218.83Q635.73 219.68 635.73 221.24" fill="white" fill-opacity="0.7"/>
<path d="M650.85 229.64L648.69 229.64L648.69 216.44L650.85 216.44L650.85 218.96L650.90 218.96Q651.06 217.69 651.98 216.94Q652.89 216.20 654.42 216.20Q656.49 216.20 657.60 217.44Q658.72 218.67 658.72 220.95L658.72 222.08L656.56 222.08L656.56 220.95Q656.56 218.07 653.75 218.07Q652.34 218.07 651.59 218.89Q650.85 219.70 650.85 221.24" fill="white" fill-opacity="0.7"/>
<path d="M673.72 229.64L662.44 229.64L662.44 227.67L667.12 227.67L667.12 218.41L662.92 218.41L662.92 216.44L669.28 216.44L669.28 227.67L673.72 227.67L673.72 229.64M667.96 214.06Q667.17 214.06 666.71 213.66Q666.26 213.25 666.26 212.55Q666.26 211.83 666.71 211.41Q667.17 210.99 667.96 210.99Q668.75 210.99 669.21 211.41Q669.66 211.83 669.66 212.55Q669.66 213.25 669.21 213.66Q668.75 214.06 667.96 214.06" fill="white" fill-opacity="0.7"/>
<path d="M682 229.88Q679.67 229.88 678.24 228.48Q676.82 227.07 676.82 224.60L676.82 221.48Q676.82 219.01 678.24 217.60Q679.67 216.20 682 216.20Q683.56 216.20 684.72 216.82Q685.89 217.45 686.54 218.58Q687.18 219.70 687.18 221.24L687.18 223.59L678.93 223.59L678.93 224.84Q678.93 226.30 679.77 227.16Q680.61 228.01 682 228.01Q683.20 228.01 683.98 227.54Q684.76 227.07 684.93 226.28L687.09 226.28Q686.87 227.94 685.48 228.91Q684.09 229.88 682 229.88M678.93 221.24L678.93 221.91L685.07 221.91L685.07 221.24Q685.07 219.68 684.27 218.83Q683.46 217.98 682 217.98Q680.54 217.98 679.73 218.83Q678.93 219.68 678.93 221.24" fill="white" fill-opacity="0.7"/>
<path d="M693.57 229.64L691.41 229.64L691.41 216.44L693.57 216.44L693.57 218.96L693.59 218.96Q693.76 217.64 694.67 216.92Q695.58 216.20 697.10 216.20Q699.09 216.20 700.26 217.42Q701.44 218.65 701.44 220.76L701.44 229.64L699.28 229.64L699.28 221.14Q699.28 219.63 698.52 218.83Q697.77 218.02 696.47 218.02Q695.13 218.02 694.35 218.86Q693.57 219.70 693.57 221.24" fill="white" fill-opacity="0.7"/>
<path d="M710.99 229.88Q708.59 229.88 707.15 228.54Q705.71 227.19 705.71 224.84L705.71 221.24Q705.71 218.89 707.15 217.54Q708.59 216.20 710.99 216.20Q713.27 216.20 714.68 217.42Q716.08 218.65 716.15 220.76L713.99 220.76Q713.92 219.49 713.13 218.80Q712.34 218.12 710.99 218.12Q709.58 218.12 708.72 218.92Q707.87 219.73 707.87 221.22L707.87 224.84Q707.87 226.33 708.72 227.14Q709.58 227.96 710.99 227.96Q712.34 227.96 713.13 227.26Q713.92 226.57 713.99 225.32L716.15 225.32Q716.08 227.43 714.68 228.66Q713.27 229.88 710.99 229.88" fill="white" fill-opacity="0.7"/>
<path d="M725.20 229.88Q722.87 229.88 721.44 228.48Q720.02 227.07 720.02 224.60L720.02 221.48Q720.02 219.01 721.44 217.60Q722.87 216.20 725.20 216.20Q726.76 216.20 727.92 216.82Q729.09 217.45 729.74 218.58Q730.38 219.70 730.38 221.24L730.38 223.59L722.13 223.59L722.13 224.84Q722.13 226.30 722.97 227.16Q723.81 228.01 725.20 228.01Q726.40 228.01 727.18 227.54Q727.96 227.07 728.13 226.28L730.29 226.28Q730.07 227.94 728.68 228.91Q727.29 229.88 725.20 229.88M722.13 221.24L722.13 221.91L728.27 221.91L728.27 221.24Q728.27 219.68 727.47 218.83Q726.66 217.98 725.20 217.98Q723.74 217.98 722.93 218.83Q722.13 219.68 722.13 221.24" fill="white" fill-opacity="0.7"/>
<path d="M739.60 229.88Q738.71 229.88 738.17 229.35Q737.63 228.82 737.63 227.98Q737.63 227.10 738.17 226.54Q738.71 225.99 739.60 225.99Q740.49 225.99 741.03 226.54Q741.57 227.10 741.57 227.98Q741.57 228.82 741.03 229.35Q740.49 229.88 739.60 229.88" fill="white" fill-opacity="0.7"/>
<path d="M769.48 229.64L767.32 229.64L767.32 214.09L762.52 214.09L762.52 212.12L774.28 212.12L774.28 214.09L769.48 214.09" fill="white" fill-opacity="0.7"/>
<path d="M782.80 229.83Q780.42 229.83 779.02 228.44Q777.62 227.05 777.62 224.55L777.62 221.53Q777.62 219.01 779.01 217.63Q780.40 216.25 782.80 216.25Q785.20 216.25 786.59 217.63Q787.98 219.01 787.98 221.53L787.98 224.55Q787.98 227.05 786.58 228.44Q785.18 229.83 782.80 229.83M782.80 227.91Q784.22 227.91 785.02 227.12Q785.82 226.33 785.82 224.79L785.82 221.29Q785.82 219.75 785.02 218.96Q784.22 218.17 782.80 218.17Q781.41 218.17 780.59 218.96Q779.78 219.75 779.78 221.29L779.78 224.79Q779.78 226.33 780.59 227.12Q781.41 227.91 782.80 227.91" fill="white" fill-opacity="0.7"/>
<path d="M808.77 229.64L806.61 229.64L806.61 212.12L808.77 212.12L808.77 218.96L808.79 218.96Q808.96 217.64 809.87 216.92Q810.78 216.20 812.30 216.20Q814.29 216.20 815.46 217.42Q816.64 218.65 816.64 220.76L816.64 229.64L814.48 229.64L814.48 221.12Q814.48 219.63 813.72 218.83Q812.97 218.02 811.67 218.02Q810.33 218.02 809.55 218.86Q808.77 219.70 808.77 221.24" fill="white" fill-opacity="0.7"/>
<path d="M826 229.88Q823.67 229.88 822.24 228.48Q820.82 227.07 820.82 224.60L820.82 221.48Q820.82 219.01 822.24 217.60Q823.67 216.20 826 216.20Q827.56 216.20 828.72 216.82Q829.89 217.45 830.54 218.58Q831.18 219.70 831.18 221.24L831.18 223.59L822.93 223.59L822.93 224.84Q822.93 226.30 823.77 227.16Q824.61 228.01 826 228.01Q827.20 228.01 827.98 227.54Q828.76 227.07 828.93 226.28L831.09 226.28Q830.87 227.94 829.48 228.91Q828.09 229.88 826 229.88M822.93 221.24L822.93 221.91L829.07 221.91L829.07 221.24Q829.07 219.68 828.27 218.83Q827.46 217.98 826 217.98Q824.54 217.98 823.73 218.83Q822.93 219.68 822.93 221.24" fill="white" fill-opacity="0.7"/>
<path d="M846.40 229.64L842.32 229.64Q840.57 229.64 839.52 228.62Q838.48 227.60 838.48 225.92L838.48 214.09L833.92 214.09L833.92 212.12L840.64 212.12L840.64 225.92Q840.64 226.74 841.10 227.20Q841.55 227.67 842.32 227.67L846.40 227.67" fill="white" fill-opacity="0.7"/>
<path d="M851.97 233.96L849.81 233.96L849.81 216.44L851.97 216.44L851.97 218.96L851.99 218.96Q852.16 217.66 853.12 216.93Q854.08 216.20 855.57 216.20Q857.56 216.20 858.74 217.51Q859.91 218.82 859.91 221.10L859.91 224.96Q859.91 227.24 858.74 228.56Q857.56 229.88 855.57 229.88Q854.08 229.88 853.12 229.14Q852.16 228.39 851.99 227.12L851.92 227.12L851.97 230.12L851.97 233.96M854.85 228.01Q856.22 228.01 856.98 227.29Q857.75 226.57 857.75 224.96L857.75 221.12Q857.75 219.49 856.98 218.78Q856.22 218.07 854.85 218.07Q853.53 218.07 852.75 218.91Q851.97 219.75 851.97 221.24L851.97 224.84Q851.97 226.33 852.75 227.17Q853.53 228.01 854.85 228.01" fill="white" fill-opacity="0.7"/>
<path d="M883.58 229.88Q881.30 229.88 879.93 228.52Q878.56 227.17 878.56 224.84L878.56 216.44L880.72 216.44L880.72 224.84Q880.72 226.28 881.49 227.13Q882.26 227.98 883.58 227.98Q884.92 227.98 885.70 227.13Q886.48 226.28 886.48 224.84L886.48 216.44L888.64 216.44L888.64 224.84Q888.64 227.17 887.25 228.52Q885.86 229.88 883.58 229.88" fill="white" fill-opacity="0.7"/>
<path d="M898.53 229.83L897.47 229.83Q895.26 229.83 894.05 228.84Q892.84 227.84 892.84 226.02L895 226.02Q895 226.93 895.65 227.44Q896.30 227.96 897.47 227.96L898.53 227.96Q899.73 227.96 900.39 227.43Q901.05 226.90 901.05 225.94Q901.05 224.24 899.49 224.02L895.84 223.50Q894.50 223.30 893.75 222.38Q893.01 221.46 893.01 219.94Q893.01 218.22 894.20 217.23Q895.38 216.25 897.47 216.25L898.53 216.25Q900.45 216.25 901.66 217.20Q902.87 218.14 902.97 219.68L900.78 219.68Q900.74 218.98 900.12 218.53Q899.51 218.07 898.53 218.07L897.47 218.07Q896.37 218.07 895.74 218.58Q895.12 219.08 895.12 219.94Q895.12 221.34 896.39 221.53L899.80 222.01Q903.16 222.49 903.16 225.94Q903.16 227.79 901.95 228.81Q900.74 229.83 898.53 229.83" fill="white" fill-opacity="0.7"/>
<path d="M927.33 229.83L926.27 229.83Q924.06 229.83 922.85 228.84Q921.64 227.84 921.64 226.02L923.80 226.02Q923.80 226.93 924.45 227.44Q925.10 227.96 926.27 227.96L927.33 227.96Q928.53 227.96 929.19 227.43Q929.85 226.90 929.85 225.94Q929.85 224.24 928.29 224.02L924.64 223.50Q923.30 223.30 922.55 222.38Q921.81 221.46 921.81 219.94Q921.81 218.22 923 217.23Q924.18 216.25 926.27 216.25L927.33 216.25Q929.25 216.25 930.46 217.20Q931.67 218.14 931.77 219.68L929.58 219.68Q929.54 218.98 928.92 218.53Q928.31 218.07 927.33 218.07L926.27 218.07Q925.17 218.07 924.54 218.58Q923.92 219.08 923.92 219.94Q923.92 221.34 925.19 221.53L928.60 222.01Q931.96 222.49 931.96 225.94Q931.96 227.79 930.75 228.81Q929.54 229.83 927.33 229.83" fill="white" fill-opacity="0.7"/>
<path d="M946.36 229.64L942.52 229.64Q940.89 229.64 939.90 228.69Q938.92 227.74 938.92 226.16L938.92 218.41L935.13 218.41L935.13 216.44L938.92 216.44L938.92 212.72L941.08 212.72L941.08 216.44L946.48 216.44L946.48 218.41L941.08 218.41L941.08 226.16Q941.08 226.83 941.48 227.25Q941.87 227.67 942.52 227.67L946.36 227.67" fill="white" fill-opacity="0.7"/>
<path d="M953.25 229.64L951.09 229.64L951.09 216.44L953.25 216.44L953.25 218.96L953.30 218.96Q953.46 217.69 954.38 216.94Q955.29 216.20 956.82 216.20Q958.89 216.20 960 217.44Q961.12 218.67 961.12 220.95L961.12 222.08L958.96 222.08L958.96 220.95Q958.96 218.07 956.15 218.07Q954.74 218.07 953.99 218.89Q953.25 219.70 953.25 221.24" fill="white" fill-opacity="0.7"/>
<path d="M970 229.88Q967.67 229.88 966.24 228.48Q964.82 227.07 964.82 224.60L964.82 221.48Q964.82 219.01 966.24 217.60Q967.67 216.20 970 216.20Q971.56 216.20 972.72 216.82Q973.89 217.45 974.54 218.58Q975.18 219.70 975.18 221.24L975.18 223.59L966.93 223.59L966.93 224.84Q966.93 226.30 967.77 227.16Q968.61 228.01 970 228.01Q971.20 228.01 971.98 227.54Q972.76 227.07 972.93 226.28L975.09 226.28Q974.87 227.94 973.48 228.91Q972.09 229.88 970 229.88M966.93 221.24L966.93 221.91L973.07 221.91L973.07 221.24Q973.07 219.68 972.27 218.83Q971.46 217.98 970 217.98Q968.54 217.98 967.73 218.83Q966.93 219.68 966.93 221.24" fill="white" fill-opacity="0.7"/>
<path d="M983.25 229.88Q981.21 229.88 980.01 228.74Q978.81 227.60 978.81 225.75Q978.81 224.53 979.36 223.62Q979.91 222.70 980.90 222.19Q981.88 221.67 983.15 221.67L987.23 221.67L987.23 220.64Q987.23 218.07 984.42 218.07Q983.18 218.07 982.41 218.53Q981.64 218.98 981.59 219.80L979.43 219.80Q979.55 218.24 980.88 217.22Q982.22 216.20 984.42 216.20Q986.82 216.20 988.11 217.35Q989.39 218.50 989.39 220.57L989.39 229.64L987.26 229.64L987.26 227.24L987.21 227.24Q987.02 228.46 985.98 229.17Q984.95 229.88 983.25 229.88M983.78 228.06Q985.36 228.06 986.30 227.29Q987.23 226.52 987.23 225.20L987.23 223.35L983.39 223.35Q982.34 223.35 981.68 223.99Q981.02 224.62 981.02 225.68Q981.02 226.78 981.75 227.42Q982.48 228.06 983.78 228.06" fill="white" fill-opacity="0.7"/>
<path d="M995.06 229.64L993.04 229.64L993.04 216.44L994.91 216.44L994.91 218.19L994.96 218.19Q995.08 217.30 995.67 216.75Q996.26 216.20 997.17 216.20Q998.03 216.20 998.63 216.70Q999.23 217.21 999.50 218.07L999.52 218.07Q999.69 217.21 1000.28 216.70Q1000.86 216.20 1001.78 216.20Q1003.05 216.20 1003.80 217.15Q1004.56 218.10 1004.56 219.61L1004.56 229.64L1002.54 229.64L1002.54 219.58Q1002.54 218.79 1002.16 218.32Q1001.78 217.86 1001.10 217.86Q1000.46 217.86 1000.07 218.31Q999.69 218.77 999.69 219.56L999.69 229.64L997.91 229.64L997.91 219.58Q997.91 218.79 997.53 218.32Q997.14 217.86 996.50 217.86Q995.82 217.86 995.44 218.31Q995.06 218.77 995.06 219.56" fill="white" fill-opacity="0.7"/>
<path d="M1019.20 229.64L1015.12 229.64Q1013.37 229.64 1012.32 228.62Q1011.28 227.60 1011.28 225.92L1011.28 214.09L1006.72 214.09L1006.72 212.12L1013.44 212.12L1013.44 225.92Q1013.44 226.74 1013.90 227.20Q1014.35 227.67 1015.12 227.67L1019.20 227.67" fill="white" fill-opacity="0.7"/>
<path d="M1033.72 229.64L1022.44 229.64L1022.44 227.67L1027.12 227.67L1027.12 218.41L1022.92 218.41L1022.92 216.44L1029.28 216.44L1029.28 227.67L1033.72 227.67L1033.72 229.64M1027.96 214.06Q1027.17 214.06 1026.71 213.66Q1026.26 213.25 1026.26 212.55Q1026.26 211.83 1026.71 211.41Q1027.17 210.99 1027.96 210.99Q1028.75 210.99 1029.21 211.41Q1029.66 211.83 1029.66 212.55Q1029.66 213.25 1029.21 213.66Q1028.75 214.06 1027.96 214.06" fill="white" fill-opacity="0.7"/>
<path d="M1039.17 229.64L1037.01 229.64L1037.01 216.44L1039.17 216.44L1039.17 218.96L1039.19 218.96Q1039.36 217.64 1040.27 216.92Q1041.18 216.20 1042.70 216.20Q1044.69 216.20 1045.86 217.42Q1047.04 218.65 1047.04 220.76L1047.04 229.64L1044.88 229.64L1044.88 221.14Q1044.88 219.63 1044.12 218.83Q1043.37 218.02 1042.07 218.02Q1040.73 218.02 1039.95 218.86Q1039.17 219.70 1039.17 221.24" fill="white" fill-opacity="0.7"/>
<path d="M1056.40 229.88Q1054.07 229.88 1052.64 228.48Q1051.22 227.07 1051.22 224.60L1051.22 221.48Q1051.22 219.01 1052.64 217.60Q1054.07 216.20 1056.40 216.20Q1057.96 216.20 1059.12 216.82Q1060.29 217.45 1060.94 218.58Q1061.58 219.70 1061.58 221.24L1061.58 223.59L1053.33 223.59L1053.33 224.84Q1053.33 226.30 1054.17 227.16Q1055.01 228.01 1056.40 228.01Q1057.60 228.01 1058.38 227.54Q1059.16 227.07 1059.33 226.28L1061.49 226.28Q1061.27 227.94 1059.88 228.91Q1058.49 229.88 1056.40 229.88M1053.33 221.24L1053.33 221.91L1059.47 221.91L1059.47 221.24Q1059.47 219.68 1058.67 218.83Q1057.86 217.98 1056.40 217.98Q1054.94 217.98 1054.13 218.83Q1053.33 219.68 1053.33 221.24" fill="white" fill-opacity="0.7"/>
<path d="M1090.36 229.64L1086.52 229.64Q1084.89 229.64 1083.90 228.69Q1082.92 227.74 1082.92 226.16L1082.92 218.41L1079.13 218.41L1079.13 216.44L1082.92 216.44L1082.92 212.72L1085.08 212.72L1085.08 216.44L1090.48 216.44L1090.48 218.41L1085.08 218.41L1085.08 226.16Q1085.08 226.83 1085.48 227.25Q1085.87 227.67 1086.52 227.67L1090.36 227.67" fill="white" fill-opacity="0.7"/>
<path d="M1096.77 229.64L1094.61 229.64L1094.61 212.12L1096.77 212.12L1096.77 218.96L1096.79 218.96Q1096.96 217.64 1097.87 216.92Q1098.78 216.20 1100.30 216.20Q1102.29 216.20 1103.46 217.42Q1104.64 218.65 1104.64 220.76L1104.64 229.64L1102.48 229.64L1102.48 221.12Q1102.48 219.63 1101.72 218.83Q1100.97 218.02 1099.67 218.02Q1098.33 218.02 1097.55 218.86Q1096.77 219.70 1096.77 221.24" fill="white" fill-opacity="0.7"/>
<path d="M1114 229.88Q1111.67 229.88 1110.24 228.48Q1108.82 227.07 1108.82 224.60L1108.82 221.48Q1108.82 219.01 1110.24 217.60Q1111.67 216.20 1114 216.20Q1115.56 216.20 1116.72 216.82Q1117.89 217.45 1118.54 218.58Q1119.18 219.70 1119.18 221.24L1119.18 223.59L1110.93 223.59L1110.93 224.84Q1110.93 226.30 1111.77 227.16Q1112.61 228.01 1114 228.01Q1115.20 228.01 1115.98 227.54Q1116.76 227.07 1116.93 226.28L1119.09 226.28Q1118.87 227.94 1117.48 228.91Q1116.09 229.88 1114 229.88M1110.93 221.24L1110.93 221.91L1117.07 221.91L1117.07 221.24Q1117.07 219.68 1116.27 218.83Q1115.46 217.98 1114 217.98Q1112.54 217.98 1111.73 218.83Q1110.93 219.68 1110.93 221.24" fill="white" fill-opacity="0.7"/>
<path d="M74.85 261.64L72.69 261.64L72.69 248.44L74.85 248.44L74.85 250.96L74.90 250.96Q75.06 249.69 75.98 248.94Q76.89 248.20 78.42 248.20Q80.49 248.20 81.60 249.44Q82.72 250.67 82.72 252.95L82.72 254.08L80.56 254.08L80.56 252.95Q80.56 250.07 77.75 250.07Q76.34 250.07 75.59 250.89Q74.85 251.70 74.85 253.24" fill="white" fill-opacity="0.7"/>
<path d="M91.60 261.88Q89.27 261.88 87.84 260.48Q86.42 259.07 86.42 256.60L86.42 253.48Q86.42 251.01 87.84 249.60Q89.27 248.20 91.60 248.20Q93.16 248.20 94.32 248.82Q95.49 249.45 96.14 250.58Q96.78 251.70 96.78 253.24L96.78 255.59L88.53 255.59L88.53 256.84Q88.53 258.30 89.37 259.16Q90.21 260.01 91.60 260.01Q92.80 260.01 93.58 259.54Q94.36 259.07 94.53 258.28L96.69 258.28Q96.47 259.94 95.08 260.91Q93.69 261.88 91.60 261.88M88.53 253.24L88.53 253.91L94.67 253.91L94.67 253.24Q94.67 251.68 93.87 250.83Q93.06 249.98 91.60 249.98Q90.14 249.98 89.33 250.83Q88.53 251.68 88.53 253.24" fill="white" fill-opacity="0.7"/>
<path d="M107.42 261.64L104.58 261.64L100.10 248.44L102.42 248.44L105.30 257.32Q105.57 258.11 105.76 258.84Q105.95 259.58 106.05 259.98Q106.17 259.58 106.34 258.84Q106.50 258.11 106.74 257.32L109.62 248.44L111.90 248.44" fill="white" fill-opacity="0.7"/>
<path d="M126.52 261.64L115.24 261.64L115.24 259.67L119.92 259.67L119.92 250.41L115.72 250.41L115.72 248.44L122.08 248.44L122.08 259.67L126.52 259.67L126.52 261.64M120.76 246.06Q119.97 246.06 119.51 245.66Q119.06 245.25 119.06 244.55Q119.06 243.83 119.51 243.41Q119.97 242.99 120.76 242.99Q121.55 242.99 122.01 243.41Q122.46 243.83 122.46 244.55Q122.46 245.25 122.01 245.66Q121.55 246.06 120.76 246.06" fill="white" fill-opacity="0.7"/>
<path d="M134.80 261.88Q132.47 261.88 131.04 260.48Q129.62 259.07 129.62 256.60L129.62 253.48Q129.62 251.01 131.04 249.60Q132.47 248.20 134.80 248.20Q136.36 248.20 137.52 248.82Q138.69 249.45 139.34 250.58Q139.98 251.70 139.98 253.24L139.98 255.59L131.73 255.59L131.73 256.84Q131.73 258.30 132.57 259.16Q133.41 260.01 134.80 260.01QNaN 260.01 136.78 259.54Q137.56 259.07 137.73 258.28L139.89 258.28Q139.67 259.94 138.28 260.91Q136.89 261.88 134.80 261.88M131.73 253.24L131.73 253.91L137.87 253.91L137.87 253.24Q137.87 251.68 137.07 250.83Q136.26 249.98 134.80 249.98Q133.34 249.98 132.53 250.83Q131.73 251.68 131.73 253.24" fill="white" fill-opacity="0.7"/>
<path d="M147.28 261.64L144.90 261.64L142.74 248.44L144.62 248.44L145.96 257.75Q146.03 258.28 146.10 258.92Q146.18 259.55 146.20 259.96Q146.25 259.55 146.31 258.92Q146.37 258.28 146.46 257.75L148.12 248.44L150.28 248.44L151.94 257.75Q152.03 258.28 152.12 258.92Q152.20 259.55 152.22 259.96Q152.27 259.55 152.34 258.92Q152.42 258.28 152.49 257.75L153.88 248.44L155.66 248.44L153.40 261.64L151.02 261.64L149.51 252.52Q149.42 251.85 149.33 251.09Q149.25 250.34 149.20 249.93Q149.18 250.34 149.08 251.09Q148.98 251.85 148.86 252.52" fill="white" fill-opacity="0.7"/>
<path d="MNaN 261.83Q175.62 261.83 174.22 260.44Q172.82 259.05 172.82 256.55L172.82 253.53Q172.82 251.01 174.21 249.63Q175.60 248.25 NaN 248.25Q180.40 248.25 181.79 249.63Q183.18 251.01 183.18 253.53L183.18 256.55Q183.18 259.05 181.78 260.44Q180.38 261.83 NaN 261.83MNaN 259.91Q179.42 259.91 180.22 259.12Q181.02 258.33 181.02 256.79L181.02 253.29Q181.02 251.75 180.22 250.96Q179.42 250.17 NaN 250.17Q176.61 250.17 175.79 250.96Q174.98 251.75 174.98 253.29L174.98 256.79Q174.98 258.33 175.79 259.12Q176.61 259.91 NaN 259.91" fill="white" fill-opacity="0.7"/>
<path d="M192.52 261.64L190.36 261.64L190.36 252.21L186.52 252.21L186.52 250.24L190.36 250.24L190.36 247.48Q190.36 245.92 191.34 245.02Q192.33 244.12 194.06 244.12L197.92 244.12L197.92 246.09L194.06 246.09Q192.52 246.09 192.52 247.48L192.52 250.24L197.92 250.24L197.92 252.21L192.52 252.21" fill="white" fill-opacity="0.7"/>
<path d="M220.05 261.88Q218.01 261.88 216.81 260.74Q215.61 259.60 215.61 257.75Q215.61 256.53 216.16 255.62Q216.71 254.70 217.70 254.19Q218.68 253.67 219.95 253.67L224.03 253.67L224.03 252.64Q224.03 250.07 221.22 250.07Q219.98 250.07 219.21 250.53Q218.44 250.98 218.39 251.80L216.23 251.80Q216.35 250.24 217.68 249.22Q219.02 248.20 221.22 248.20Q223.62 248.20 224.91 249.35Q226.19 250.50 226.19 252.57L226.19 261.64L224.06 261.64L224.06 259.24L224.01 259.24Q223.82 260.46 222.78 261.17Q221.75 261.88 220.05 261.88M220.58 260.06Q222.16 260.06 223.10 259.29Q224.03 258.52 224.03 257.20L224.03 255.35L220.19 255.35Q219.14 255.35 218.48 255.99Q217.82 256.62 217.82 257.68Q217.82 258.78 218.55 259.42Q219.28 260.06 220.58 260.06" fill="white" fill-opacity="0.7"/>
<path d="M236.37 261.88Q234.88 261.88 233.92 261.15Q232.96 260.42 232.79 259.12L232.77 259.12L232.77 261.64L230.61 261.64L230.61 244.12L232.77 244.12L232.77 247.96L232.72 250.96L232.74 250.96Q232.94 249.69 233.91 248.94Q234.88 248.20 236.37 248.20Q238.36 248.20 239.54 249.52Q240.71 250.84 240.71 253.12L240.71 256.98Q240.71 259.24 239.54 260.56Q238.36 261.88 236.37 261.88M235.65 260.01Q237.02 260.01 237.78 259.29Q238.55 258.57 238.55 256.96L238.55 253.12Q238.55 251.49 237.78 250.78Q237.02 250.07 235.65 250.07Q234.33 250.07 233.55 250.91Q232.77 251.75 232.77 253.24L232.77 256.84Q232.77 258.33 233.55 259.17Q234.33 260.01 235.65 260.01" fill="white" fill-opacity="0.7"/>
<path d="M249.98 261.88Q247.70 261.88 246.33 260.52Q244.96 259.17 244.96 256.84L244.96 248.44L247.12 248.44L247.12 256.84Q247.12 258.28 247.89 259.13Q248.66 259.98 249.98 259.98Q251.32 259.98 252.10 259.13Q252.88 258.28 252.88 256.84L252.88 248.44L255.04 248.44L255.04 256.84Q255.04 259.17 253.65 260.52Q252.26 261.88 249.98 261.88" fill="white" fill-opacity="0.7"/>
<path d="M264.93 261.83L263.87 261.83Q261.66 261.83 260.45 260.84Q259.24 259.84 259.24 258.02L261.40 258.02Q261.40 258.93 262.05 259.44Q262.70 259.96 263.87 259.96L264.93 259.96Q266.13 259.96 266.79 259.43Q267.45 258.90 267.45 257.94Q267.45 256.24 265.89 256.02L262.24 255.50Q260.90 255.30 260.15 254.38Q259.41 253.46 259.41 251.94Q259.41 250.22 260.60 249.23Q261.78 248.25 263.87 248.25L264.93 248.25Q266.85 248.25 268.06 249.20Q269.27 250.14 269.37 251.68L267.18 251.68Q267.14 250.98 266.52 250.53Q265.91 250.07 264.93 250.07L263.87 250.07Q262.77 250.07 262.14 250.58Q261.52 251.08 261.52 251.94Q261.52 253.34 262.79 253.53L266.20 254.01Q269.56 254.49 269.56 257.94Q269.56 259.79 268.35 260.81Q267.14 261.83 264.93 261.83" fill="white" fill-opacity="0.7"/>
<path d="M278.80 261.88Q276.47 261.88 275.04 260.48Q273.62 259.07 273.62 256.60L273.62 253.48Q273.62 251.01 275.04 249.60Q276.47 248.20 278.80 248.20Q280.36 248.20 281.52 248.82Q282.69 249.45 283.34 250.58Q283.98 251.70 283.98 253.24L283.98 255.59L275.73 255.59L275.73 256.84Q275.73 258.30 276.57 259.16Q277.41 260.01 278.80 260.01Q280 260.01 280.78 259.54Q281.56 259.07 281.73 258.28L283.89 258.28Q283.67 259.94 282.28 260.91Q280.89 261.88 278.80 261.88M275.73 253.24L275.73 253.91L281.87 253.91L281.87 253.24Q281.87 251.68 281.07 250.83Q280.26 249.98 278.80 249.98Q277.34 249.98 276.53 250.83Q275.73 251.68 275.73 253.24" fill="white" fill-opacity="0.7"/>
<path d="M305.25 261.64L303.09 261.64L303.09 248.44L305.25 248.44L305.25 250.96L305.30 250.96Q305.46 249.69 306.38 248.94Q307.29 248.20 308.82 248.20Q310.89 248.20 312 249.44Q313.12 250.67 313.12 252.95L313.12 254.08L310.96 254.08L310.96 252.95Q310.96 250.07 308.15 250.07Q306.74 250.07 305.99 250.89Q305.25 251.70 305.25 253.24" fill="white" fill-opacity="0.7"/>
<path d="M322 261.88Q319.67 261.88 318.24 260.48Q316.82 259.07 316.82 256.60L316.82 253.48Q316.82 251.01 318.24 249.60Q319.67 248.20 322 248.20Q323.56 248.20 324.72 248.82Q325.89 249.45 326.54 250.58Q327.18 251.70 327.18 253.24L327.18 255.59L318.93 255.59L318.93 256.84Q318.93 258.30 319.77 259.16Q320.61 260.01 322 260.01Q323.20 260.01 323.98 259.54Q324.76 259.07 324.93 258.28L327.09 258.28Q326.87 259.94 325.48 260.91Q324.09 261.88 322 261.88M318.93 253.24L318.93 253.91L325.07 253.91L325.07 253.24Q325.07 251.68 324.27 250.83Q323.46 249.98 322 249.98Q320.54 249.98 319.73 250.83Q318.93 251.68 318.93 253.24" fill="white" fill-opacity="0.7"/>
<path d="M333.57 265.96L331.41 265.96L331.41 248.44L333.57 248.44L333.57 250.96L333.59 250.96Q333.76 249.66 334.72 248.93Q335.68 248.20 337.17 248.20Q339.16 248.20 340.34 249.51Q341.51 250.82 341.51 253.10L341.51 256.96Q341.51 259.24 340.34 260.56Q339.16 261.88 337.17 261.88Q335.68 261.88 334.72 261.14Q333.76 260.39 333.59 259.12L333.52 259.12L333.57 262.12L333.57 265.96M336.45 260.01Q337.82 260.01 338.58 259.29Q339.35 258.57 339.35 256.96L339.35 253.12Q339.35 251.49 338.58 250.78Q337.82 250.07 336.45 250.07Q335.13 250.07 334.35 250.91Q333.57 251.75 333.57 253.24L333.57 256.84Q333.57 258.33 334.35 259.17Q335.13 260.01 336.45 260.01" fill="white" fill-opacity="0.7"/>
<path d="M350.80 261.83Q348.42 261.83 347.02 260.44Q345.62 259.05 345.62 256.55L345.62 253.53Q345.62 251.01 347.01 249.63Q348.40 248.25 350.80 248.25Q353.20 248.25 354.59 249.63Q355.98 251.01 355.98 253.53L355.98 256.55Q355.98 259.05 354.58 260.44Q353.18 261.83 350.80 261.83M350.80 259.91Q352.22 259.91 353.02 259.12Q353.82 258.33 353.82 256.79L353.82 253.29Q353.82 251.75 353.02 250.96Q352.22 250.17 350.80 250.17Q349.41 250.17 348.59 250.96Q347.78 251.75 347.78 253.29L347.78 256.79Q347.78 258.33 348.59 259.12Q349.41 259.91 350.80 259.91" fill="white" fill-opacity="0.7"/>
<path d="M362.85 261.64L360.69 261.64L360.69 248.44L362.85 248.44L362.85 250.96L362.90 250.96Q363.06 249.69 363.98 248.94Q364.89 248.20 366.42 248.20Q368.49 248.20 369.60 249.44Q370.72 250.67 370.72 252.95L370.72 254.08L368.56 254.08L368.56 252.95Q368.56 250.07 365.75 250.07Q364.34 250.07 363.59 250.89Q362.85 251.70 362.85 253.24" fill="white" fill-opacity="0.7"/>
<path d="M384.76 261.64L380.92 261.64Q379.29 261.64 378.30 260.69Q377.32 259.74 377.32 258.16L377.32 250.41L373.53 250.41L373.53 248.44L377.32 248.44L377.32 244.72L379.48 244.72L379.48 248.44L384.88 248.44L384.88 250.41L379.48 250.41L379.48 258.16Q379.48 258.83 379.88 259.25Q380.27 259.67 380.92 259.67L384.76 259.67" fill="white" fill-opacity="0.7"/>
<path d="M394.53 261.83L393.47 261.83Q391.26 261.83 390.05 260.84Q388.84 259.84 388.84 258.02L391 258.02Q391 258.93 391.65 259.44Q392.30 259.96 393.47 259.96L394.53 259.96Q395.73 259.96 396.39 259.43Q397.05 258.90 397.05 257.94Q397.05 256.24 395.49 256.02L391.84 255.50Q390.50 255.30 389.75 254.38Q389.01 253.46 389.01 251.94Q389.01 250.22 390.20 249.23Q391.38 248.25 393.47 248.25L394.53 248.25Q396.45 248.25 397.66 249.20Q398.87 250.14 398.97 251.68L396.78 251.68Q396.74 250.98 396.12 250.53Q395.51 250.07 394.53 250.07L393.47 250.07Q392.37 250.07 391.74 250.58Q391.12 251.08 391.12 251.94Q391.12 253.34 392.39 253.53L395.80 254.01Q399.16 254.49 399.16 257.94Q399.16 259.79 397.95 260.81Q396.74 261.83 394.53 261.83" fill="white" fill-opacity="0.7"/>
<path d="M408.47 265.48L406.24 265.48L407.56 258.14L410.15 258.14" fill="white" fill-opacity="0.7"/>
<path d="M436.53 265.96L434.27 265.96L436.22 260.82L431.30 248.44L433.62 248.44L436.74 256.60Q436.94 257.08 437.10 257.61Q437.27 258.14 437.34 258.52Q437.42 258.14 437.58 257.61Q437.75 257.08 437.92 256.60L440.82 248.44L443.10 248.44" fill="white" fill-opacity="0.7"/>
<path d="M451.60 261.83Q449.22 261.83 447.82 260.44Q446.42 259.05 446.42 256.55L446.42 253.53Q446.42 251.01 447.81 249.63Q449.20 248.25 451.60 248.25Q454 248.25 455.39 249.63Q456.78 251.01 456.78 253.53L456.78 256.55Q456.78 259.05 455.38 260.44Q453.98 261.83 451.60 261.83M451.60 259.91Q453.02 259.91 453.82 259.12Q454.62 258.33 454.62 256.79L454.62 253.29Q454.62 251.75 453.82 250.96Q453.02 250.17 451.60 250.17Q450.21 250.17 449.39 250.96Q448.58 251.75 448.58 253.29L448.58 256.79Q448.58 258.33 449.39 259.12Q450.21 259.91 451.60 259.91" fill="white" fill-opacity="0.7"/>
<path d="M465.98 261.88Q463.70 261.88 462.33 260.52Q460.96 259.17 460.96 256.84L460.96 248.44L463.12 248.44L463.12 256.84Q463.12 258.28 463.89 259.13Q464.66 259.98 465.98 259.98Q467.32 259.98 468.10 259.13Q468.88 258.28 468.88 256.84L468.88 248.44L471.04 248.44L471.04 256.84Q471.04 259.17 469.65 260.52Q468.26 261.88 465.98 261.88" fill="white" fill-opacity="0.7"/>
<path d="M480.40 261.88Q479.51 261.88 478.97 261.35Q478.43 260.82 478.43 259.98Q478.43 259.10 478.97 258.54Q479.51 257.99 480.40 257.99Q481.29 257.99 481.83 258.54Q482.37 259.10 482.37 259.98Q482.37 260.82 481.83 261.35Q481.29 261.88 480.40 261.88" fill="white" fill-opacity="0.7"/>
<path d="M494.80 261.88Q493.91 261.88 493.37 261.35Q492.83 260.82 492.83 259.98Q492.83 259.10 493.37 258.54Q493.91 257.99 494.80 257.99Q495.69 257.99 496.23 258.54Q496.77 259.10 496.77 259.98Q496.77 260.82 496.23 261.35Q495.69 261.88 494.80 261.88" fill="white" fill-opacity="0.7"/>
<path d="M90.80 137.02Q81.20 137.02 75.63 131.45Q70.06 125.88 70.06 115.71L70.06 86.24Q70.06 76.16 75.63 70.59Q81.20 65.02 90.80 65.02Q100.40 65.02 105.97 70.54Q111.54 76.06 111.54 86.24L111.54 115.71Q111.54 125.88 105.97 131.45Q100.40 137.02 90.80 137.02M90.80 128.57Q96.18 128.57 99.10 125.50Q102.03 122.43 102.03 116.67L102.03 85.28Q102.03 79.61 99.15 76.54Q96.27 73.47 90.80 73.47Q85.33 73.47 82.45 76.54Q79.57 79.61 79.57 85.28L79.57 116.67Q79.57 122.43 82.50 125.50Q85.42 128.57 90.80 128.57M153.20 136.06L143.70 136.06L143.70 74.62L124.69 74.62L124.69 65.98L172.11 65.98L172.11 74.62L153.20 74.62L153.20 136.06M227.31 136.06L186.51 136.06L186.51 65.98L227.31 65.98L227.31 74.52L195.92 74.52L195.92 95.36L223.95 95.36L223.95 103.61L195.92 103.61L195.92 127.52L227.31 127.52L227.31 136.06M321.58 137.02Q311.89 137.02 306.18 131.60Q300.46 126.17 300.46 116.67L300.46 85.28Q300.46 75.87 306.18 70.44Q311.89 65.02 321.58 65.02Q331.18 65.02 336.90 70.49Q342.61 75.96 342.61 85.28L333.10 85.28Q333.10 79.61 330.03 76.54Q326.96 73.47 321.58 73.47Q316.11 73.47 313.04 76.54Q309.97 79.61 309.97 85.28L309.97 116.67Q309.97 122.43 313.04 125.50Q316.11 128.57 321.58 128.57Q326.96 128.57 330.03 125.50Q333.10 122.43 333.10 116.67L333.10 107.55L319.47 107.55L319.47 99.10L342.61 99.10L342.61 116.67Q342.61 126.08 336.90 131.55Q331.18 137.02 321.58 137.02M378.80 137.02Q369.20 137.02 363.63 131.45Q358.06 125.88 358.06 115.71L358.06 86.24Q358.06 76.16 363.63 70.59Q369.20 65.02 378.80 65.02Q388.40 65.02 393.97 70.54Q399.54 76.06 399.54 86.24L399.54 115.71Q399.54 125.88 393.97 131.45Q388.40 137.02 378.80 137.02M378.80 128.57Q384.18 128.57 387.10 125.50Q390.03 122.43 390.03 116.67L390.03 85.28Q390.03 79.61 387.15 76.54Q384.27 73.47 378.80 73.47Q373.33 73.47 370.45 76.54Q367.57 79.61 367.57 85.28L367.57 116.67Q367.57 122.43 370.50 125.50Q373.42 128.57 378.80 128.57M434.86 136.06L416.05 136.06L416.05 65.98L434.86 65.98Q441.68 65.98 446.72 68.62Q451.76 71.26 454.54 76.01Q457.33 80.76 457.33 87.20L457.33 114.75Q457.33 121.18 454.54 125.98Q451.76 130.78 446.72 133.42Q441.68 136.06 434.86 136.06M425.55 74.43L425.55 127.61L434.86 127.61Q440.91 127.61 444.37 124.16Q447.82 120.70 447.82 114.75L447.82 87.20Q447.82 81.24 444.37 77.84Q440.91 74.43 434.86 74.43L425.55 74.43M479.31 136.06L469.62 136.06L487.76 65.98L500.34 65.98L518.38 136.06L508.69 136.06L504.27 117.82L483.73 117.82L479.31 136.06M490.74 88.92L485.65 109.95L502.35 109.95L497.36 89.02Q495.92 83.26 495.06 79.23Q494.19 75.20 NaN 73.76Q493.81 75.20 492.94 79.23Q492.08 83.26 490.74 88.92M550.06 136.06L531.25 136.06L531.25 65.98L550.06 65.98Q556.88 65.98 561.92 68.62Q566.96 71.26 569.74 76.01Q572.53 80.76 572.53 87.20L572.53 114.75Q572.53 121.18 569.74 125.98Q566.96 130.78 561.92 133.42Q556.88 136.06 550.06 136.06M540.75 74.43L540.75 127.61L550.06 127.61Q556.11 127.61 559.57 124.16Q563.02 120.70 563.02 114.75L563.02 87.20Q563.02 81.24 559.57 77.84Q556.11 74.43 550.06 74.43L540.75 74.43M607.66 136.06L588.85 136.06L588.85 65.98L607.66 65.98Q614.48 65.98 619.52 68.62Q624.56 71.26 627.34 76.01Q630.13 80.76 630.13 87.20L630.13 114.75Q630.13 121.18 627.34 125.98Q624.56 130.78 619.52 133.42Q614.48 136.06 607.66 136.06M598.35 74.43L598.35 127.61L607.66 127.61Q613.71 127.61 617.17 124.16Q620.62 120.70 620.62 114.75L620.62 87.20Q620.62 81.24 617.17 77.84Q613.71 74.43 607.66 74.43L598.35 74.43M671.60 136.06L662.10 136.06L662.10 110.04L641.07 65.98L651.15 65.98L664.11 93.63Q665.26 96.12 665.98 98.14Q666.70 100.16 666.90 101.02Q667.18 100.16 667.90 98.14Q668.62 96.12 669.87 93.63L682.74 65.98L692.53 65.98L671.60 110.04L671.60 136.06M767.31 136.06L757.62 136.06L775.76 65.98L788.34 65.98L806.38 136.06L796.69 136.06L792.27 117.82L771.73 117.82L767.31 136.06M778.74 88.92L773.65 109.95L790.35 109.95L785.36 89.02Q783.92 83.26 783.06 79.23Q782.19 75.20 NaN 73.76Q781.81 75.20 780.94 79.23Q780.08 83.26 778.74 88.92M840.94 136.06L819.34 136.06L819.34 65.98L839.60 65.98Q849.30 65.98 854.91 70.83Q860.53 75.68 860.53 84.12Q860.53 89.60 857.12 93.87Q853.71 98.14 848.34 99.10L848.34 99.39Q852.37 99.87 855.49 102.27Q858.61 104.67 860.38 108.36Q862.16 112.06 862.16 116.48Q862.16 125.50 856.45 130.78Q850.74 136.06 840.94 136.06M828.66 74.33L828.66 95.55L839.50 95.55Q844.88 95.55 847.95 92.72Q851.02 89.88 851.02 84.99Q851.02 80 847.95 77.16Q844.88 74.33 839.60 74.33L828.66 74.33M828.66 103.61L828.66 127.71L840.08 127.71Q845.94 127.71 849.30 124.59Q852.66 121.47 852.66 116.09Q852.66 110.52 849.30 107.07Q845.94 103.61 840.08 103.61L828.66 103.61M897.20 137.02Q887.31 137.02 881.98 131.55Q876.66 126.08 876.66 116.67L876.66 65.98L886.16 65.98L886.16 116.67Q886.16 122.24 888.90 125.40Q891.63 128.57 897.20 128.57Q902.67 128.57 905.50 125.40Q908.34 122.24 908.34 116.67L908.34 65.98L917.84 65.98L917.84 116.67Q917.84 126.17 912.51 131.60Q907.18 137.02 897.20 137.02M955.18 137.02Q944.82 137.02 938.67 131.60Q932.53 126.17 932.53 116.67L942.03 116.67Q942.03 122.24 945.58 125.40Q949.14 128.57 955.18 128.57Q960.94 128.57 964.35 125.36Q967.76 122.14 967.76 116.76Q967.76 112.73 965.55 109.71Q963.34 106.68 959.31 105.63L948.94 102.84Q942.13 100.92 938.14 95.88Q934.16 90.84 934.16 83.93Q934.16 78.27 936.70 74Q939.25 69.72 943.86 67.37Q948.46 65.02 954.51 65.02Q960.66 65.02 965.31 67.37Q969.97 69.72 972.56 73.95Q975.15 78.17 975.15 83.74L965.74 83.74Q965.74 79.13 962.62 76.25Q959.50 73.37 954.51 73.37Q949.52 73.37 946.50 76.25Q943.47 79.13 943.47 83.74Q943.47 87.48 945.49 90.03Q947.50 92.57 951.15 93.63L961.81 96.51Q969.01 98.43 973.04 103.85Q977.07 109.28 977.07 116.76Q977.07 122.91 974.38 127.47Q971.70 132.03 966.75 134.52Q961.81 137.02 955.18 137.02M1033.71 136.06L992.91 136.06L992.91 65.98L1033.71 65.98L1033.71 74.52L1002.32 74.52L1002.32 95.36L1030.35 95.36L1030.35 103.61L1002.32 103.61L1002.32 127.52L1033.71 127.52" fill="url(#paint2_linear_0_1)"/>
<g id="Group 1">
<rect id="Rectangle 1" x="26" y="168" width="12" height="184" rx="5" fill="url(#paint3_linear_0_1)" fill-opacity="0.9"/>
</g>
<g id="Group 1_2">
<rect id="Rectangle 2" x="26" y="38" width="12" height="119" rx="5" fill="url(#paint4_linear_0_1)" fill-opacity="0.9"/>
</g>
<ellipse id="Ellipse 1" cx="148.5" cy="573" rx="215.5" ry="214" fill="url(#paint5_linear_0_1)" fill-opacity="0.4"/>
<rect id="Rectangle 3" x="1229" y="48" width="300" height="300" rx="25" fill="#FFFBFB" fill-opacity="0.9"/>
<g id="placeholder-logo"><g transform="translate(1229,48) translate(0.0,60.0) scale(1.2000)"><g fill="#666666">
  <path d="m88.05,27.65c-3.15,4 -3.2,51.2 -0.05,54.35c2.75,2.75 71.7,3.15 74.45,0.45c2.85,-2.9 2.3,-53.85 -0.65,-55.9c-1.95,-1.35 -7.15,-1.55 -36.95,-1.55l-34.7,0l-2.1,2.65zm69.45,3.35c0.65,0 1,8.6 1,23.75l0,23.75l-33,0l-33,0l-0.25,-23c-0.15,-12.6 -0.1,-23.45 0.15,-24.1c0.35,-0.85 8.9,-1.05 32.25,-0.75c17.55,0.2 32.3,0.35 32.85,0.35z"/>
  <path d="m99.15,37.3c-6.85,7.35 4.25,17.35 11.4,10.25c1.35,-1.35 2.45,-3.65 2.45,-5.05c0,-6.45 -9.35,-9.95 -13.85,-5.2z"/>
  <path d="m135,42.5c-0.7,0.85 -5.25,5.15 -10.1,9.6l-8.85,8.1l-3.2,-3.2l-3.15,-3.15l-6.35,6.3c-5.55,5.5 -6.35,6.75 -6.35,10.05l0,3.8l28.5,0l28.5,0l0,-8.6l0,-8.55l-8.15,-7.7c-9.35,-8.85 -9.15,-8.7 -10.85,-6.65zm7.25,15.2c0.95,0.9 1.75,2.9 1.75,4.45c6.35,-5.05 4.75,-7.15 4.9,-11.55c0.95,0 0,0 0,0l-6.65,7.1z"/>
  <path d="m53.65,110.75c0.1,4.8 0.45,8.65 0.75,8.5c0.35,-0.15 1.3,-0.25 2.1,-0.25c1.1,0 1.5,-1.2 1.5,-4.75l0,-4.75l3.25,5c4.9,7.5 6.2,6.75 6.55,-3.75c0.25,-8.15 0.15,-8.75 -1.7,-8.75c-1.65,0 -2.05,0.8 -2.3,4.75l-0.3,4.75l-2.8,-4.75c-4.85,-8.25 -7.25,-6.9 -7.05,4z"/>
  <path d="m91,108.9c0,9.65 0.3,10.1 6.1,10.1c5.8,0 7.15,-2.65 1.65,-3.2l-3.25,-0.3l-0.3,-6.75c-0.25,-5.95 -0.55,-6.75 -2.25,-6.75c-1.75,0 -1.95,0.7 -1.95,6.9z"/>
  <path d="m151,102.45c0,0.25 1,2.15 2.25,4.2c1.2,2.1 2.45,5.8 2.75,8.25c0.65,5.9 4,6.95 4,1.25c0.05,-2.1 1.25,-5.85 2.95,-8.9l2.9,-5.25l-2.5,0c-1.8,0 -2.8,0.85 -3.75,3.1l-1.3,3.05l-1.25,-3.05c-1.1,-2.6 -6.05,-4.8 -6.05,-2.65z"/>
  <path d="m191,107.45c0,9.05 3.4,8.85 4.25,-0.2c0.45,-5 0.35,-5.25 -1.9,-5.25c-2.2,0 -2.35,0.4 -2.35,5.45z"/>
  <path d="m180.8,104.75c-1.3,5.35 0.65,13.6 3.45,14.35c2.3,0.6 2.75,0.4 2.75,-1.2c0,-1.05 -0.45,-1.9 -1,-1.9c-0.55,0 -1,-1.6 -1,-3.5c0,-1.95 0.45,-3.5 1,-3.5c0.55,0 1,-0.7 1,-1.5c0,-0.85 -0.45,-1.5 -1,-1.5c-0.55,0 -1,-0.7 -1,-1.5c0,-2.1 -3.65,-1.9 -4.2,0.25z"/>
  <path d="m71.55,106.55c-2.2,2.25 -2.05,9.7 0.3,11.8c4.5,4.1 10.15,0.75 10.15,-6.1c0,-4.85 -2,-7.25 -6,-7.25c-1.55,0 -3.55,0.7 -4.45,1.55zm6.25,5.8c0.25,3.05 0,3.65 -1.6,3.65c-2.3,0 -3.25,-2.65 -2.05,-5.85c1.25,-3.35 3.3,-2.1 3.65,2.2z"/>
  <path d="m105.75,106.1c-2.5,1.45 -2.45,9.95 0.1,12.25c4.3,3.9 10.15,0.35 10.15,-6.2c0,-6 -5.15,-9.05 -10.25,-6.05zm6.05,6.25c0.25,3.05 0,3.65 -1.6,3.65c-2.3,0 -3.25,-2.65 -2.05,-5.85c1.25,-3.35 3.3,-2.1 3.65,2.2z"/>
  <path d="m119.2,106.2c-3.8,3.8 -0.4,12.55 4.4,11.35c1.9,-0.45 2.45,-0.3 2.15,0.65c-0.25,0.7 -1.55,1.2 -2.85,1.1c-4.05,-0.3 -5.35,0.45 -3.85,2.25c0.85,1.05 2.6,1.45 5.35,1.25l4.1,-0.3l0.3,-8.75l0.3,-8.75l-4.35,0c-2.4,0 -4.9,0.55 -5.55,1.2zm6.6,4.45c0.4,2.85 -2.15,4.85 -3.75,2.95c-0.9,-1.1 -0.9,-2 -0.05,-3.6c1.35,-2.5 3.4,-2.15 3.8,0.65z"/>
  <path d="m133.55,106.55c-2.2,2.25 -2.05,9.7 0.3,11.8c4.5,4.1 10.15,0.75 10.15,-6.1c0,-4.85 -2,-7.25 -6,-7.25c-1.55,0 -3.55,0.7 -4.45,1.55zm6.25,5.8c0.25,3.05 0,3.65 -1.6,3.65c-2.3,0 -3.25,-2.65 -2.05,-5.85c1.25,-3.35 3.3,-2.1 3.65,2.2z"/>
  <path d="m167.65,106.85c-3.9,4.3 -0.75,13.15 4.7,13.15c2.4,0 5.65,-2.75 5.65,-4.85c0,-1.4 -2.65,-1.55 -3.5,-0.15c-0.95,1.55 -4.5,1.15 -4.5,-0.5c0,-1.1 1.1,-1.5 4,-1.5c3.15,0 4,-0.35 4,-1.8c0,-5.3 -6.85,-8.25 -10.35,-4.35z"/>
  <path d="m191,117.5c0,2.15 0.4,2.6 2.25,2.3c1.5,-0.2 2.25,-1 2.25,-2.3c0,-1.3 -0.75,-2.1 -2.25,-2.3c-1.85,-0.3 -2.25,0.15 -2.25,2.3z"/>
 </g></g></g>
</g>
<defs>
<linearGradient id="paint0_linear_0_1" x1="0" y1="198" x2="1584" y2="198" gradientUnits="userSpaceOnUse">
<stop stop-color="#3D052C"/>
<stop offset="1"/>
</linearGradient>
<linearGradient id="paint1_linear_0_1" x1="323" y1="-224" x2="323" y2="352" gradientUnits="userSpaceOnUse">
<stop stop-color="#28F6F2" stop-opacity="0.4"/>
<stop offset="1" stop-color="#17908E" stop-opacity="0.7"/>
</linearGradient>
<linearGradient id="paint2_linear_0_1" x1="148.5" y1="38" x2="148.5" y2="140" gradientUnits="userSpaceOnUse">
<stop stop-color="white"/>
<stop offset="1" stop-color="#999999"/>
</linearGradient>
<linearGradient id="paint3_linear_0_1" x1="38" y1="260" x2="26" y2="260" gradientUnits="userSpaceOnUse">
<stop stop-color="#D9D9D9"/>
<stop offset="1" stop-color="#737373"/>
</linearGradient>
<linearGradient id="paint4_linear_0_1" x1="38" y1="97.5" x2="26" y2="97.5" gradientUnits="userSpaceOnUse">
<stop stop-color="#D9D9D9"/>
<stop offset="1" stop-color="#737373"/>
</linearGradient>
<linearGradient id="paint5_linear_0_1" x1="27.5" y1="434.5" x2="148.5" y2="787" gradientUnits="userSpaceOnUse">
<stop stop-color="#2E21BC"/>
<stop offset="1" stop-color="#150F56"/>
</linearGradient>
<clipPath id="clip0_0_1">
<rect width="1584" height="396" fill="white"/>
</clipPath>
</defs>
</svg>
